<?xml version="1.0" encoding="UTF-8"?>
<svg version="1.1" xmlns="http://www.w3.org/2000/svg" width="500" height="499">
<path d="M0 0 C1.61569939 0.65280436 3.23160333 1.30510257 4.84765625 1.95703125 C21.15016848 8.63106367 37.21701232 16.8777282 51 28 C51 28.66 51 29.32 51 30 C51.56460937 30.26683594 52.12921875 30.53367188 52.7109375 30.80859375 C62.8474825 36.08444055 72.00322468 44.02523335 79 53 C81.16678378 55.28716065 83.35973025 57.46644188 85.78125 59.484375 C94.26787824 66.5565652 100.57246189 75.02568335 106.328125 84.3984375 C107.88762273 86.82513257 109.55237054 89.01769695 111.375 91.25 C134.76599767 120.80201938 147.82881211 162.08254311 152 199 C152.0928125 199.71406006 152.185625 200.42812012 152.28125 201.16381836 C159.08453845 258.41470551 144.18496686 322.89810422 109 369 C107.82578852 370.68225883 106.65902759 372.36974414 105.5 374.0625 C98.80044502 383.65711155 91.27832271 392.72167729 83 401 C84.08539063 401.53109375 85.17078125 402.0621875 86.2890625 402.609375 C87.73448239 403.3226991 89.17978889 404.03625301 90.625 404.75 C91.33785156 405.09804688 92.05070312 405.44609375 92.78515625 405.8046875 C100.57048599 409.66163985 110.48014658 414.59146127 114 423 C114.75547377 428.1204333 114.48645459 430.86909878 111.5 435.125 C100.51165584 448.14352322 83.43496059 452.88646081 67.60498047 457.27050781 C65.09373634 457.97375031 62.5957931 458.71264536 60.09765625 459.4609375 C35.72914946 466.61934955 10.62191231 470.82059923 -14.5625 473.8125 C-15.80368591 473.96128098 -15.80368591 473.96128098 -17.06994629 474.11306763 C-41.83615503 477.03905794 -66.50122447 478.3829862 -91.4375 478.3125 C-92.75306885 478.31100952 -94.0686377 478.30951904 -95.42407227 478.3079834 C-119.36285604 478.26925047 -143.17291088 477.38441817 -167 475 C-167.67973877 474.93210266 -168.35947754 474.86420532 -169.05981445 474.79425049 C-199.75068919 471.65875989 -230.84698539 465.47829141 -260.18603516 455.9140625 C-262.88030199 455.0388816 -265.58364189 454.2021816 -268.29296875 453.375 C-280.31542105 449.64186982 -294.33168687 444.33922068 -301.23046875 432.97265625 C-302.76296894 429.04416593 -302.57221296 425.34638343 -300.9375 421.5 C-299.9784375 420.2625 -299.9784375 420.2625 -299 419 C-298.61714844 418.48953125 -298.23429687 417.9790625 -297.83984375 417.453125 C-291.87603459 410.51920288 -283.04972263 406.98408101 -275 403 C-273.66646338 402.33374006 -272.33307413 401.66718482 -271 401 C-271.70962891 400.43345703 -271.70962891 400.43345703 -272.43359375 399.85546875 C-280.78199643 392.90660336 -287.16998409 384.4376552 -293.265625 375.50390625 C-295.04980842 372.9280919 -296.92595399 370.43906001 -298.8125 367.9375 C-307.37465569 356.17283258 -314.28273791 343.35948943 -320 330 C-320.3815625 329.12408203 -320.763125 328.24816406 -321.15625 327.34570312 C-330.61816357 305.45024376 -337.28368495 282.74388281 -340 259 C-340.13921875 257.83416382 -340.13921875 257.83416382 -340.28125 256.64477539 C-346.27826255 200.09615977 -333.64614692 137.23900287 -299.28125 91.08203125 C-297.3664006 88.49501724 -295.56451473 85.8854163 -293.8125 83.1875 C-290.78856493 78.59180206 -287.43687791 74.29202525 -284 70 C-282.7934375 68.453125 -282.7934375 68.453125 -281.5625 66.875 C-279.59783895 64.67074614 -277.80077661 62.93563403 -275.5625 61.0625 C-272.82903976 58.75662013 -270.37057308 56.34859149 -268.00390625 53.67578125 C-259.79610801 44.41498492 -251.10880474 37.29778229 -240.90136719 30.32617188 C-238.61858706 28.73397084 -236.46137023 27.01774985 -234.3125 25.25 C-171.19732845 -24.55181505 -72.35609369 -30.53176208 0 0 Z " fill="#EF392E" transform="translate(344,19)"/>
<path d="M0 0 C1.61569939 0.65280436 3.23160333 1.30510257 4.84765625 1.95703125 C21.15016848 8.63106367 37.21701232 16.8777282 51 28 C51 28.66 51 29.32 51 30 C51.56460937 30.26683594 52.12921875 30.53367188 52.7109375 30.80859375 C62.8474825 36.08444055 72.00322468 44.02523335 79 53 C81.16678378 55.28716065 83.35973025 57.46644188 85.78125 59.484375 C94.26787824 66.5565652 100.57246189 75.02568335 106.328125 84.3984375 C107.88762273 86.82513257 109.55237054 89.01769695 111.375 91.25 C134.76599767 120.80201938 147.82881211 162.08254311 152 199 C152.0928125 199.71406006 152.185625 200.42812012 152.28125 201.16381836 C159.08453845 258.41470551 144.18496686 322.89810422 109 369 C107.82578852 370.68225883 106.65902759 372.36974414 105.5 374.0625 C98.80044502 383.65711155 91.27832271 392.72167729 83 401 C84.08539063 401.53109375 85.17078125 402.0621875 86.2890625 402.609375 C87.73448239 403.3226991 89.17978889 404.03625301 90.625 404.75 C91.33785156 405.09804688 92.05070312 405.44609375 92.78515625 405.8046875 C100.57048599 409.66163985 110.48014658 414.59146127 114 423 C114.75547377 428.1204333 114.48645459 430.86909878 111.5 435.125 C100.51165584 448.14352322 83.43496059 452.88646081 67.60498047 457.27050781 C65.09373634 457.97375031 62.5957931 458.71264536 60.09765625 459.4609375 C35.72914946 466.61934955 10.62191231 470.82059923 -14.5625 473.8125 C-15.80368591 473.96128098 -15.80368591 473.96128098 -17.06994629 474.11306763 C-41.83615503 477.03905794 -66.50122447 478.3829862 -91.4375 478.3125 C-92.75306885 478.31100952 -94.0686377 478.30951904 -95.42407227 478.3079834 C-119.36285604 478.26925047 -143.17291088 477.38441817 -167 475 C-167.67973877 474.93210266 -168.35947754 474.86420532 -169.05981445 474.79425049 C-199.75068919 471.65875989 -230.84698539 465.47829141 -260.18603516 455.9140625 C-262.88030199 455.0388816 -265.58364189 454.2021816 -268.29296875 453.375 C-280.31542105 449.64186982 -294.33168687 444.33922068 -301.23046875 432.97265625 C-302.76296894 429.04416593 -302.57221296 425.34638343 -300.9375 421.5 C-299.9784375 420.2625 -299.9784375 420.2625 -299 419 C-298.61714844 418.48953125 -298.23429687 417.9790625 -297.83984375 417.453125 C-291.87603459 410.51920288 -283.04972263 406.98408101 -275 403 C-273.66646338 402.33374006 -272.33307413 401.66718482 -271 401 C-271.70962891 400.43345703 -271.70962891 400.43345703 -272.43359375 399.85546875 C-280.78199643 392.90660336 -287.16998409 384.4376552 -293.265625 375.50390625 C-295.04980842 372.9280919 -296.92595399 370.43906001 -298.8125 367.9375 C-307.37465569 356.17283258 -314.28273791 343.35948943 -320 330 C-320.3815625 329.12408203 -320.763125 328.24816406 -321.15625 327.34570312 C-330.61816357 305.45024376 -337.28368495 282.74388281 -340 259 C-340.13921875 257.83416382 -340.13921875 257.83416382 -340.28125 256.64477539 C-346.27826255 200.09615977 -333.64614692 137.23900287 -299.28125 91.08203125 C-297.3664006 88.49501724 -295.56451473 85.8854163 -293.8125 83.1875 C-290.78856493 78.59180206 -287.43687791 74.29202525 -284 70 C-282.7934375 68.453125 -282.7934375 68.453125 -281.5625 66.875 C-279.59783895 64.67074614 -277.80077661 62.93563403 -275.5625 61.0625 C-272.82903976 58.75662013 -270.37057308 56.34859149 -268.00390625 53.67578125 C-259.79610801 44.41498492 -251.10880474 37.29778229 -240.90136719 30.32617188 C-238.61858706 28.73397084 -236.46137023 27.01774985 -234.3125 25.25 C-171.19732845 -24.55181505 -72.35609369 -30.53176208 0 0 Z M-152 12 C-153.32862061 12.37946777 -153.32862061 12.37946777 -154.68408203 12.76660156 C-166.45237465 16.13911378 -177.96811158 19.63174696 -189 25 C-189.93658447 25.45101074 -189.93658447 25.45101074 -190.89208984 25.91113281 C-210.55448534 35.48963147 -228.50244126 48.11246196 -244.62109375 62.84375 C-246.77510509 64.79615436 -248.97027726 66.68277359 -251.1875 68.5625 C-254.48574682 71.43857123 -257.34797178 74.52129838 -260.16796875 77.86328125 C-261.42576087 79.33025842 -262.72285523 80.76416124 -264.05078125 82.16796875 C-274.47981114 93.22681572 -282.38595047 106.2270627 -290.00195312 119.31396484 C-290.90403193 120.83787782 -291.8481294 122.33672569 -292.796875 123.83203125 C-306.57002111 145.91329072 -312.28554491 171.74529331 -317 197 C-317.13567383 197.72364746 -317.27134766 198.44729492 -317.41113281 199.19287109 C-322.58287656 228.19105682 -318.66157581 259.11400732 -310.78076172 287.21289062 C-310.0392143 289.8600155 -309.33209679 292.51435606 -308.62890625 295.171875 C-299.85308526 327.31005713 -281.83185032 356.06013172 -259.37890625 380.3984375 C-257.32526799 382.64428821 -255.34214746 384.92885562 -253.375 387.25 C-249.89480927 391.2388961 -246.05198279 394.60585206 -242 398 C-241.16082031 398.73863281 -240.32164062 399.47726562 -239.45703125 400.23828125 C-219.16804128 417.78475948 -194.83243115 431.76705204 -169.27734375 439.91015625 C-167.38554291 440.53925331 -165.50119253 441.1945406 -163.64379883 441.91894531 C-156.46675016 444.68791464 -149.38172413 446.31139522 -141.8125 447.625 C-140.61197998 447.83664795 -139.41145996 448.0482959 -138.17456055 448.26635742 C-135.81407472 448.67686976 -133.45252927 449.08134719 -131.08984375 449.47900391 C-128.66008795 449.88869882 -126.23659606 450.32057807 -123.8125 450.76171875 C-103.97318915 453.88375316 -81.79720459 453.21262673 -62 450 C-61.18015625 449.87641113 -60.3603125 449.75282227 -59.515625 449.62548828 C-24.20415901 444.23866146 10.83407395 431.46270124 39 409 C39.75667969 408.43152344 40.51335937 407.86304688 41.29296875 407.27734375 C46.34499036 403.46006752 51.04878054 399.33219235 55.71875 395.05859375 C57.50375262 393.44781227 59.30277351 391.92623343 61.1875 390.4375 C64.11197547 387.90295459 66.53157391 385.22104125 69.03125 382.27734375 C71.20422487 379.76376369 73.47554183 377.35951004 75.75 374.9375 C93.56530985 355.24689438 107.05651714 331.69946579 116.28564453 306.89135742 C116.89168207 305.28678708 117.53027506 303.69457203 118.17578125 302.10546875 C137.27250374 253.08398525 135.03067528 190.96362608 114 143 C111.50534307 137.57723132 108.77448185 132.2834828 106 127 C105.11634766 125.28103516 105.11634766 125.28103516 104.21484375 123.52734375 C97.93488622 111.52532924 90.21784795 100.7383857 82 90 C81.40316406 89.195625 80.80632812 88.39125 80.19140625 87.5625 C76.51668158 82.67418265 72.50672738 78.38830232 68.125 74.125 C66.27533655 72.27533655 64.59601615 70.39406314 62.9375 68.375 C59.6597341 64.46862146 55.92035249 61.24632697 52 58 C51.12085938 57.2678125 50.24171875 56.535625 49.3359375 55.78125 C45.14609628 51.74496313 45.14609628 51.74496313 40 50 C40 49.34 40 48.68 40 48 C37.9982762 46.48221496 37.9982762 46.48221496 35.375 44.9375 C31.57213856 42.59466572 27.8056541 40.21977962 24.08398438 37.74975586 C9.51198241 28.15929685 -5.34448773 21.18839886 -22 16 C-22.86173828 15.73058594 -23.72347656 15.46117187 -24.61132812 15.18359375 C-42.87739296 9.55280385 -61.5812287 4.90895093 -80.78515625 4.796875 C-81.59572983 4.78990601 -82.40630341 4.78293701 -83.24143982 4.77575684 C-85.84851326 4.75844619 -88.45537145 4.75203532 -91.0625 4.75 C-92.39933838 4.74848938 -92.39933838 4.74848938 -93.76318359 4.74694824 C-113.6893863 4.76216592 -132.80829395 6.36410487 -152 12 Z " fill="#252624" transform="translate(344,19)"/>
<path d="M0 0 C3.66974936 3.4823854 6.70216447 7.08643159 9.5 11.3125 C9.91797852 11.94349609 10.33595703 12.57449219 10.76660156 13.22460938 C20.05238463 27.58211833 28.33323482 42.84578397 34 59 C34.350625 59.92425781 34.70125 60.84851563 35.0625 61.80078125 C38.72103857 71.90463581 40.90206786 82.48150175 43 93 C43.16951172 93.84755859 43.33902344 94.69511719 43.51367188 95.56835938 C51.26532692 136.3851654 47.51064161 188.7168608 27.3515625 225.5234375 C25.93964583 228.11059116 24.67959989 230.75498052 23.41259766 233.4152832 C14.09315564 252.7425086 1.78225302 269.92849793 -12.79296875 285.60546875 C-14.63985169 287.60925502 -16.39469353 289.64658162 -18.125 291.75 C-20.77239911 294.87067716 -23.71130207 297.49610176 -26.83203125 300.13671875 C-28.29751893 301.396246 -29.73235711 302.69219127 -31.13671875 304.01953125 C-74.03897532 344.44525688 -134.28873179 359.75452692 -191.82177734 358.18798828 C-202.65300328 357.78133599 -213.35999104 355.9749278 -224 354 C-224.92103516 353.82919922 -225.84207031 353.65839844 -226.79101562 353.48242188 C-234.66018634 351.97480465 -242.25875878 350.23563806 -249.6171875 346.98046875 C-252.34694753 345.85723962 -255.09301615 345.10025806 -257.9375 344.3125 C-284.23620478 336.37035296 -309.57326586 319.56236117 -329.234375 300.6484375 C-331.55629624 298.42490275 -333.91911022 296.32157115 -336.375 294.25 C-340.32441819 290.81894295 -343.65028245 287.00867838 -347 283 C-347.7734375 282.1028125 -348.546875 281.205625 -349.34375 280.28125 C-354.95111719 273.70470823 -360.09103923 266.95031896 -364.85693359 259.72607422 C-365.6199773 258.57384889 -366.39119607 257.4269965 -367.17041016 256.28564453 C-373.19675821 247.44223161 -377.99474163 238.20545878 -382.5 228.5 C-383.01667236 227.38987549 -383.53334473 226.27975098 -384.06567383 225.13598633 C-386.63655176 219.47046173 -388.75604583 214.10129903 -390 208 C-389.34 208 -388.68 208 -388 208 C-388 208.66 -388 209.32 -388 210 C-387.34 210 -386.68 210 -386 210 C-383 214.38461538 -383 214.38461538 -383 217 C-381.7934375 217.37125 -381.7934375 217.37125 -380.5625 217.75 C-379.716875 218.1625 -378.87125 218.575 -378 219 C-377.6278958 220.32303717 -377.29369827 221.65737935 -377 223 C-376.12214844 223.41958984 -376.12214844 223.41958984 -375.2265625 223.84765625 C-372.4442854 225.28760668 -370.97293515 227.0596552 -368.9375 229.4375 C-365.47225031 233.37814758 -361.9398487 237.20875135 -358.25 240.9375 C-356.92742187 242.28134766 -356.92742187 242.28134766 -355.578125 243.65234375 C-353.1376302 246.03068919 -353.1376302 246.03068919 -350.484375 247.50390625 C-347.50892792 249.29572422 -345.44825914 251.54074569 -343 254 C-340.81413918 255.73925033 -338.54161895 257.34121068 -336.25 258.9375 C-335.63020264 259.37352539 -335.01040527 259.80955078 -334.37182617 260.25878906 C-332.58521675 261.51171781 -330.79335489 262.75675398 -329 264 C-328.16597656 264.58394531 -327.33195312 265.16789062 -326.47265625 265.76953125 C-320.86975941 269.60949129 -315.01833123 272.85934775 -309 276 C-308.41331543 276.31227539 -307.82663086 276.62455078 -307.22216797 276.94628906 C-297.76609813 281.96499695 -288.26010468 286.00865251 -278.08056641 289.32080078 C-276.0721326 289.97645237 -274.07322891 290.65609084 -272.07421875 291.33984375 C-264.83041055 293.76689759 -257.54787428 295.65845553 -250.0625 297.1875 C-249.31315186 297.34234863 -248.56380371 297.49719727 -247.79174805 297.65673828 C-233.90151876 300.34441503 -220.05875248 301.38246265 -205.9375 301.3125 C-205.18397247 301.31100952 -204.43044495 301.30951904 -203.65408325 301.3079834 C-181.48515275 301.22976037 -158.41991856 299.18751356 -137.62109375 290.98828125 C-134.70026149 289.88698384 -131.75180315 289.04255908 -128.75 288.1875 C-109.12908148 282.20184877 -90.62691576 270.81930275 -74 259 C-73.18354004 258.42113037 -73.18354004 258.42113037 -72.35058594 257.83056641 C-65.34432158 252.80026428 -58.93047358 247.25209479 -52.625 241.375 C-51.97088135 240.76567627 -51.3167627 240.15635254 -50.64282227 239.52856445 C-46.13585989 235.2535823 -42.02709655 230.72585089 -38 226 C-36.87626541 224.70723229 -35.75144549 223.41540627 -34.625 222.125 C-33.13185777 220.40828567 -32.01991666 219.03983332 -31 217 C-30.34 217 -29.68 217 -29 217 C-28.731875 216.27425781 -28.46375 215.54851562 -28.1875 214.80078125 C-27.01329619 212.03135976 -25.6605676 209.69080566 -24 207.1875 C-23.484375 206.39730469 -22.96875 205.60710937 -22.4375 204.79296875 C-21.7259375 203.90544922 -21.7259375 203.90544922 -21 203 C-20.34 203 -19.68 203 -19 203 C-18.690625 201.824375 -18.690625 201.824375 -18.375 200.625 C-17.23840504 197.62852238 -16.12436127 195.4806379 -14.4375 192.8125 C-9.56217148 184.93051925 -5.85455914 176.41330813 -2 168 C-1.64010986 167.23123535 -1.28021973 166.4624707 -0.90942383 165.67041016 C1.24428009 160.98783777 2.82741534 156.50449887 4.0625 151.5 C5.06724181 147.46378397 6.14017623 143.50954752 7.4921875 139.578125 C17.6110553 109.72603712 18.15342409 73.66183373 12 43 C11.71866211 41.58605957 11.71866211 41.58605957 11.43164062 40.14355469 C10.83114531 37.19452025 10.20510479 34.25263361 9.5625 31.3125 C9.36954346 30.42747803 9.17658691 29.54245605 8.9777832 28.63061523 C7.38361173 21.76326508 4.98562091 15.38651785 2.08129883 8.97045898 C0.57712928 5.63124676 0 3.76147257 0 0 Z " fill="#BA2C26" transform="translate(428,113)"/>
<path d="M0 0 C1.18843506 0.01123901 1.18843506 0.01123901 2.40087891 0.02270508 C13.754986 0.23115484 23.17460762 3.17506771 33.3046875 8.3671875 C38.54772144 10.90994645 45.67803008 11.23080676 51.26660156 9.640625 C53.49714031 8.79570864 55.68514449 7.88270517 57.875 6.9375 C59.47607222 6.28982232 61.07894412 5.64657552 62.68359375 5.0078125 C63.45171387 4.70133789 64.21983398 4.39486328 65.01123047 4.07910156 C80.02097101 -1.80829494 97.02122835 -1.94241875 112.03125 3.8984375 C113.0521875 4.34445313 114.073125 4.79046875 115.125 5.25 C115.8984375 5.57226562 116.671875 5.89453125 117.46875 6.2265625 C119.44443605 7.12816526 121.26641601 8.12718534 123.125 9.25 C124.35669922 9.98669922 124.35669922 9.98669922 125.61328125 10.73828125 C132.01249268 14.8622175 137.81888263 19.65818502 139.625 27.390625 C139.93019106 32.38812861 138.24128253 35.49212989 135.125 39.25 C131.76014573 40.93242713 128.71922266 41.08865195 125.125 40.25 C122.39920136 38.47305532 120.02109371 36.47282745 117.55859375 34.34765625 C108.75092079 26.75580974 98.38579358 22.3635052 86.65625 22.7265625 C79.76076176 23.74868133 73.50026891 26.52780139 67.125 29.25 C65.23105259 30.02545551 63.335524 30.79707663 61.4375 31.5625 C60.34888672 32.02076172 60.34888672 32.02076172 59.23828125 32.48828125 C44.2194323 37.90172958 29.46521054 32.97407829 15.74414062 26.67553711 C7.05670681 22.72232677 -1.30229452 21.78722367 -10.4375 24.875 C-18.09638602 27.94287536 -24.36835025 32.55961335 -30.46484375 38.05078125 C-33.80797432 40.89383135 -37.23915271 40.63372062 -41.45703125 40.609375 C-43.875 40.25 -43.875 40.25 -46.4375 37.875 C-49.16946272 32.88619852 -49.05537786 29.81194045 -47.875 24.25 C-41.91606076 12.08383239 -28.94241528 6.62036121 -16.875 2.25 C-11.22451791 0.41005497 -5.92247757 -0.07420538 0 0 Z " fill="#222121" transform="translate(200.875,249.75)"/>
<path d="M0 0 C2.51666056 2.12948202 3.71851452 3.6855159 4.4140625 6.93359375 C4.69228186 10.80670008 4.52103866 12.32212344 2.06640625 15.515625 C-1.89544851 18.7254844 -5.84431687 20.10382753 -10.625 21.75 C-36.87468908 31.30571776 -60.64249761 44.6034269 -80 65 C-81.66666667 66.66666667 -83.33333333 68.33333333 -85 70 C-95.86268078 81.04622838 -104.08315245 93.15384758 -111.52734375 106.70703125 C-113 109 -113 109 -116 111 C-120.70547252 111.8371159 -124.02671316 111.6691347 -128 108.9375 C-130.42391352 105.37737702 -130.84365389 103.29728442 -131 99 C-129.84328214 96.35649825 -128.75533661 94.30445205 -127.1875 91.9375 C-126.77951172 91.29264648 -126.37152344 90.64779297 -125.95117188 89.98339844 C-124.66101631 87.96961681 -123.33868707 85.98180586 -122 84 C-121.58186035 83.3807666 -121.1637207 82.7615332 -120.73291016 82.12353516 C-117.92148507 78.0062147 -114.99408318 73.98591198 -112 70 C-111.02740234 68.68708984 -111.02740234 68.68708984 -110.03515625 67.34765625 C-98.7738643 52.87522363 -84.9989418 39.55497732 -70 29 C-68.95585937 28.26136719 -67.91171875 27.52273437 -66.8359375 26.76171875 C-50.77237498 15.96961171 -33.45337659 7.39370981 -14.98535156 1.62817383 C-13.20006213 1.06330053 -11.43247543 0.44318881 -9.66796875 -0.18359375 C-6.03294047 -1.29592305 -3.64812317 -1.01336755 0 0 Z " fill="#FC9A89" transform="translate(201,51)"/>
<path d="M0 0 C2.1532714 0.0031477 4.30515161 -0.02025989 6.45825195 -0.0456543 C7.83780752 -0.04792879 9.21736676 -0.04863009 10.59692383 -0.04760742 C11.84513916 -0.05058838 13.09335449 -0.05356934 14.37939453 -0.05664062 C19.12704801 0.45140594 22.47961688 1.93664813 25.85864258 5.31567383 C26.64427628 13.4781019 26.91115828 22.95715848 22.85864258 30.31567383 C17.26094306 36.56643828 11.89244327 39.80022352 3.52661133 40.51489258 C-2.55451036 40.7857874 -7.23537763 40.08464543 -12.14135742 36.31567383 C-18.94102812 29.21379554 -20.60927257 22.13922526 -20.46557617 12.45629883 C-20.00932199 8.03667996 -18.85580851 5.80568237 -16.14135742 2.31567383 C-11.30024561 -0.91173405 -5.6637632 -0.01735576 0 0 Z " fill="#232120" transform="translate(316.141357421875,174.684326171875)"/>
<path d="M0 0 C1.03769783 -0.00430527 1.03769783 -0.00430527 2.09635925 -0.00869751 C3.55977191 -0.01073751 5.02321188 -0.00521198 6.48657227 0.00732422 C8.71238267 0.02330763 10.93635722 0.00751341 13.16210938 -0.01171875 C14.58724356 -0.00973487 16.0123766 -0.00588821 17.4375 0 C19.37266479 0.00507568 19.37266479 0.00507568 21.34692383 0.01025391 C25.19563371 0.42862054 27.63711162 1.37541204 30.91796875 3.3984375 C32.70818035 6.97886071 32.23090468 11.07954808 32.29296875 15.0234375 C32.34904297 16.34021484 32.34904297 16.34021484 32.40625 17.68359375 C32.50352177 24.95736036 30.46555837 29.6498598 25.47436523 34.92382812 C20.02687505 39.84517569 14.54113776 40.83907125 7.4375 40.63671875 C1.29354574 40.05566261 -2.64757562 38.23332331 -6.89453125 33.7109375 C-12.88255013 26.17806443 -14.08961043 18.95028811 -13.08203125 9.3984375 C-10.35247513 1.98964231 -7.85982744 0.02066951 0 0 Z " fill="#232221" transform="translate(161.08203125,174.6015625)"/>
<path d="M0 0 C3.98066095 1.57724302 5.60667274 2.41000911 8 6 C8.49731296 10.73756029 7.55021175 13.62783835 5.25 17.75 C4.73953125 18.69359375 4.2290625 19.6371875 3.703125 20.609375 C1.91213096 23.1233391 0.8997412 24.04280387 -2 25 C-5.85030645 24.85998886 -8.45637547 24.28363019 -11.875 22.5 C-14.4712514 19.44558659 -15.02482984 17.40467837 -15.2734375 13.453125 C-14.78283504 9.05172003 -12.67206149 5.47221177 -10 2 C-6.25816125 -0.49455917 -4.43756964 -0.37606522 0 0 Z " fill="#FC9888" transform="translate(72,173)"/>
<path d="M0 0 C11.22 0 22.44 0 34 0 C34 0.66 34 1.32 34 2 C34.78375 2.2475 35.5675 2.495 36.375 2.75 C39 4 39 4 40.1484375 5.5390625 C41.42260499 9.22128966 41.28893379 12.75757727 41.25 16.625 C41.26160156 17.78902344 41.26160156 17.78902344 41.2734375 18.9765625 C41.25340266 24.74659734 41.25340266 24.74659734 39 27 C38.98541748 26.40985107 38.97083496 25.81970215 38.95581055 25.21166992 C38.88131156 22.53628771 38.78466005 19.86215108 38.6875 17.1875 C38.65366211 15.7943457 38.65366211 15.7943457 38.61914062 14.37304688 C38.58369141 13.48037109 38.54824219 12.58769531 38.51171875 11.66796875 C38.48553467 10.84578857 38.45935059 10.0236084 38.43237305 9.17651367 C37.9036966 6.51522034 37.13233096 5.63674718 35 4 C31.43072615 2.81024205 28.20053028 2.87521845 24.48828125 2.90234375 C23.39594429 2.90446617 23.39594429 2.90446617 22.28153992 2.90663147 C19.95848461 2.91222341 17.63552612 2.92477438 15.3125 2.9375 C13.73632952 2.94251604 12.16015752 2.94707877 10.58398438 2.95117188 C6.72261902 2.9621902 2.86132592 2.97944926 -1 3 C-0.67 2.01 -0.34 1.02 0 0 Z " fill="#BD403A" transform="translate(154,173)"/>
<path d="M0 0 C14.34989475 -0.37218747 25.3248345 1.5284994 38.1796875 8.1171875 C45.66995398 11.74980601 54.36928554 10.18020413 62 8 C62.495 8.99 62.495 8.99 63 10 C54.41144514 13.0537084 45.81802506 12.26066251 36.8984375 11.12109375 C36.27195313 11.08113281 35.64546875 11.04117187 35 11 C34.67 11.33 34.34 11.66 34 12 C32.33382885 12.04063832 30.66611905 12.042721 29 12 C28.67 11.34 28.34 10.68 28 10 C28.66 10 29.32 10 30 10 C30 9.34 30 8.68 30 8 C29.01 8 28.02 8 27 8 C27 7.01 27 6.02 27 5 C26.32453125 4.86722656 25.6490625 4.73445312 24.953125 4.59765625 C24.06109375 4.42105469 23.1690625 4.24445313 22.25 4.0625 C21.36828125 3.88847656 20.4865625 3.71445313 19.578125 3.53515625 C18.07371739 3.2228777 16.57382452 2.88122978 15.09375 2.46875 C12.16030345 1.81200824 9.24663912 1.64726474 6.25 1.4375 C5.07953125 1.35371094 3.9090625 1.26992187 2.703125 1.18359375 C1.81109375 1.12300781 0.9190625 1.06242188 0 1 C0 0.67 0 0.34 0 0 Z " fill="#381A16" transform="translate(196,250)"/>
<path d="M0 0 C-3.80931176 1.26977059 -5.81618993 0.52074507 -9.6875 -0.4375 C-10.86699219 -0.72496094 -12.04648438 -1.01242187 -13.26171875 -1.30859375 C-14.61716797 -1.65083984 -14.61716797 -1.65083984 -16 -2 C-16 -1.34 -16 -0.68 -16 0 C-16.60328125 0.04898437 -17.2065625 0.09796875 -17.828125 0.1484375 C-18.62734375 0.22320312 -19.4265625 0.29796875 -20.25 0.375 C-21.03890625 0.44460938 -21.8278125 0.51421875 -22.640625 0.5859375 C-25.12085981 1.0212105 -26.85982375 1.68369691 -29 3 C-29.33 3.66 -29.66 4.32 -30 5 C-30.74894531 5.12246094 -31.49789062 5.24492187 -32.26953125 5.37109375 C-35.70896061 6.16329422 -37.16300486 7.6322984 -39.6875 10.0625 C-43.80492091 14 -43.80492091 14 -46 14 C-46 14.66 -46 15.32 -46 16 C-49.63 16 -53.26 16 -57 16 C-57 15.67 -57 15.34 -57 15 C-56.40574219 14.96003906 -55.81148437 14.92007812 -55.19921875 14.87890625 C-47.98664307 13.97032362 -44.24858691 11.06383198 -38.87890625 6.328125 C-26.72434742 -3.50107047 -14.43449442 -5.15956396 0 0 Z " fill="#C53E39" transform="translate(216,275)"/>
<path d="M0 0 C4.44739413 -0.07449251 8.8944519 -0.12876257 13.34228516 -0.16479492 C14.85341727 -0.17982543 16.36450618 -0.20025564 17.87548828 -0.22631836 C20.05512187 -0.26295689 22.23417575 -0.27978338 24.4140625 -0.29296875 C25.7232666 -0.3086792 27.0324707 -0.32438965 28.38134766 -0.34057617 C32.28317015 0.02665108 34.68641731 0.9431534 38 3 C39.80013962 6.60027923 39.22753861 10.78556436 39.25 14.75 C39.270625 15.64460937 39.29125 16.53921875 39.3125 17.4609375 C39.34378893 22.76441052 38.90874966 26.37661897 36 31 C35.34 31 34.68 31 34 31 C34.47566406 29.83597656 34.47566406 29.83597656 34.9609375 28.6484375 C36.29894334 23.95032677 36.45855137 19.48668711 36.625 14.625 C36.66367188 13.69816406 36.70234375 12.77132812 36.7421875 11.81640625 C36.83587591 9.5444623 36.92159348 7.27251404 37 5 C36.34 5 35.68 5 35 5 C34.505 4.01 34.505 4.01 34 3 C30.50791819 1.83597273 27.60852228 1.78881492 23.92578125 1.68359375 C23.2419487 1.66281265 22.55811615 1.64203156 21.8535614 1.62062073 C19.6733079 1.55533846 17.49293595 1.49633983 15.3125 1.4375 C13.83267014 1.39429447 12.35285217 1.35067953 10.87304688 1.30664062 C7.24882378 1.19967917 3.62446811 1.09835177 0 1 C0 0.67 0 0.34 0 0 Z " fill="#38130F" transform="translate(154,175)"/>
<path d="M0 0 C0.33 0.66 0.66 1.32 1 2 C0.14453125 3.9609375 0.14453125 3.9609375 -1.1875 6.375 C-3.76564826 11.28780473 -5.4998738 16.22937051 -7.10546875 21.53125 C-8 24 -8 24 -10 26 C-10.80741414 27.8226333 -10.80741414 27.8226333 -11.47265625 29.921875 C-11.73240234 30.70046875 -11.99214844 31.4790625 -12.25976562 32.28125 C-12.52466797 33.0959375 -12.78957031 33.910625 -13.0625 34.75 C-13.33126953 35.54921875 -13.60003906 36.3484375 -13.87695312 37.171875 C-15.28189752 41.43225501 -16.4164976 45.53368535 -17 50 C-17.66 50 -18.32 50 -19 50 C-18.43630023 44.17947216 -17.27403679 39.02191797 -15.375 33.5 C-15.11211182 32.7260791 -14.84922363 31.9521582 -14.57836914 31.15478516 C-10.80545639 20.28870789 -6.54323946 9.51743921 0 0 Z " fill="#C3403A" transform="translate(52,142)"/>
<path d="M0 0 C-9.11859305 5.3585806 -22.78703753 4.18001852 -33 4.1875 C-34.06178467 4.18830566 -35.12356934 4.18911133 -36.2175293 4.18994141 C-41.899274 4.14960402 -47.38040513 3.84429009 -53 3 C-53 2.67 -53 2.34 -53 2 C-52.09870361 1.97494385 -51.19740723 1.9498877 -50.26879883 1.92407227 C-46.85986391 1.82778454 -43.45103508 1.72863973 -40.04223633 1.62768555 C-38.57905218 1.58490988 -37.11583619 1.54320729 -35.65258789 1.50268555 C-27.3193149 1.27112633 -19.03141232 0.92874398 -10.72265625 0.20507812 C-7.13386876 -0.06523944 -3.59685547 -0.07052658 0 0 Z " fill="#311615" transform="translate(285,469)"/>
<path d="M0 0 C0 0.33 0 0.66 0 1 C-7.92 1.495 -7.92 1.495 -16 2 C-16 1.67 -16 1.34 -16 1 C-29.86 0.67 -43.72 0.34 -58 0 C-58 -0.33 -58 -0.66 -58 -1 C-38.60323318 -3.0494697 -19.35139788 -2.01610574 0 0 Z " fill="#B4B0A6" transform="translate(285,3)"/>
<path d="M0 0 C5.2623374 1.46951388 9.3898308 3.89114958 13.9375 6.8125 C14.95360352 7.45155273 14.95360352 7.45155273 15.99023438 8.10351562 C20.43928397 10.92309547 24.73824147 13.9050854 29 17 C27.68 17.33 26.36 17.66 25 18 C24.67 17.34 24.34 16.68 24 16 C23.01 15.67 22.02 15.34 21 15 C21 14.34 21 13.68 21 13 C18.525 12.505 18.525 12.505 16 12 C16 12.99 16 13.98 16 15 C15.67 14.34 15.34 13.68 15 13 C12.41225673 11.48304705 9.92528027 10.62684577 7 10 C7 9.01 7 8.02 7 7 C7.66 7 8.32 7 9 7 C9 6.34 9 5.68 9 5 C6.03 4.505 6.03 4.505 3 4 C3 3.34 3 2.68 3 2 C2.01 2 1.02 2 0 2 C0 1.34 0 0.68 0 0 Z " fill="#E23E37" transform="translate(353,49)"/>
<path d="M0 0 C0.66 0 1.32 0 2 0 C2.66 0.66 3.32 1.32 4 2 C4.99 2.66 5.98 3.32 7 4 C7 4.66 7 5.32 7 6 C7.66 6 8.32 6 9 6 C9.33 6.66 9.66 7.32 10 8 C10.99 8.66 11.98 9.32 13 10 C14.38671875 11.62109375 14.38671875 11.62109375 15.6875 13.4375 C16.34298828 14.33275391 16.34298828 14.33275391 17.01171875 15.24609375 C18 17 18 17 18 20 C16.42466914 20.86883706 14.83935491 21.71959068 13.25 22.5625 C12.36828125 23.03816406 11.4865625 23.51382812 10.578125 24.00390625 C8 25 8 25 4 24 C7.96 22.02 11.92 20.04 16 18 C14.845 17.05125 13.69 16.1025 12.5 15.125 C7.69309518 10.9361258 3.72235114 6.16773216 0 1 C0 0.67 0 0.34 0 0 Z " fill="#706D64" transform="translate(57,402)"/>
<path d="M0 0 C3.83000023 0.54714289 5.50719706 2.10513208 8 5 C9.77033995 7.68829399 10.98031915 9.94095744 12 13 C12.66 13 13.32 13 14 13 C15.04349839 14.63978318 16.03182008 16.31464976 17 18 C18.31468077 19.83425521 19.65577448 21.64529289 21.01171875 23.44921875 C22 25 22 25 22 27 C22.66 27 23.32 27 24 27 C25.32 29.64 26.64 32.28 28 35 C28.99 35 29.98 35 31 35 C30.67 36.65 30.34 38.3 30 40 C27.03742137 37.22378748 24.90490229 34.47183788 22.8125 31 C17.33106464 22.19683828 10.90042222 14.09039355 4.5078125 5.9375 C2.98110556 3.97572114 1.48577717 1.99289872 0 0 Z " fill="#351613" transform="translate(415,96)"/>
<path d="M0 0 C0.66 0 1.32 0 2 0 C1.95359375 0.97839844 1.9071875 1.95679688 1.859375 2.96484375 C1.64783615 10.64823691 1.54650834 17.3867883 6 24 C6.81017578 24.79664063 6.81017578 24.79664063 7.63671875 25.609375 C9 27 9 27 9 29 C10.423125 29.433125 10.423125 29.433125 11.875 29.875 C15 31 15 31 17 33 C15.35 33 13.7 33 12 33 C12 32.34 12 31.68 12 31 C11.0925 30.814375 10.185 30.62875 9.25 30.4375 C3.82082525 28.03613425 2.34952969 23.03691109 0.25 17.8125 C-0.88902496 14.83770609 -1 13.37739548 -1 10 C-2.32 10 -3.64 10 -5 10 C-5 9.34 -5 8.68 -5 8 C-3.68 7.67 -2.36 7.34 -1 7 C-0.67 4.69 -0.34 2.38 0 0 Z " fill="#C4413A" transform="translate(295,182)"/>
<path d="M0 0 C3.04093002 3.04093002 3.04391981 6.76622467 3.625 10.875 C3.82283081 12.27226318 3.82283081 12.27226318 4.0246582 13.69775391 C5.90085882 29.01540988 5.24807838 44.59878558 5 60 C4.67 60 4.34 60 4 60 C3.97494385 59.05680908 3.9498877 58.11361816 3.92407227 57.1418457 C3.82870191 53.62871337 3.72948275 50.11573292 3.62768555 46.6027832 C3.58448452 45.08492245 3.54279952 43.56701774 3.50268555 42.04907227 C3.44462188 39.86200741 3.38103344 37.67516082 3.31640625 35.48828125 C3.27974854 34.17384033 3.24309082 32.85939941 3.20532227 31.50512695 C3.03178485 28.54261018 2.63531205 25.88644484 2 23 C1.7430649 19.32949861 1.55808443 15.65943387 1.37890625 11.984375 C1.25386719 10.99953125 1.12882812 10.0146875 1 9 C0.34 8.67 -0.32 8.34 -1 8 C-0.67 5.36 -0.34 2.72 0 0 Z " fill="#A0362F" transform="translate(469,204)"/>
<path d="M0 0 C0.33 0 0.66 0 1 0 C1.06993164 0.70382812 1.13986328 1.40765625 1.21191406 2.1328125 C2.48467932 14.67221045 3.74839882 26.90943657 7.328125 39.0234375 C7.97626816 41.89486245 8.03962234 43.29431621 7 46 C4.61202297 40.91054057 3.27769782 36.22165312 2.375 30.6875 C1.66595012 25.7007887 1.66595012 25.7007887 0 21 C-0.08400529 19.40552536 -0.10727467 17.80759455 -0.09765625 16.2109375 C-0.09443359 15.26992188 -0.09121094 14.32890625 -0.08789062 13.359375 C-0.07951172 12.37453125 -0.07113281 11.3896875 -0.0625 10.375 C-0.05798828 9.38242187 -0.05347656 8.38984375 -0.04882812 7.3671875 C-0.03702145 4.9113984 -0.020554 2.45572896 0 0 Z " fill="#401713" transform="translate(25,259)"/>
<path d="M0 0 C0.33 0 0.66 0 1 0 C1.05039785 4.93976444 1.08617722 9.87937107 1.10986328 14.81933594 C1.11976371 16.49091201 1.13328753 18.16247155 1.15087891 19.83398438 C1.27247004 31.70700073 0.56981207 43.22906415 -1 55 C-1.33 55 -1.66 55 -2 55 C-2 44.44 -2 33.88 -2 23 C-1.34 23 -0.68 23 0 23 C0 15.41 0 7.82 0 0 Z " fill="#B3AFA1" transform="translate(496,228)"/>
<path d="M0 0 C0.97275879 0.02634521 1.94551758 0.05269043 2.94775391 0.07983398 C4.31359619 0.14086304 4.31359619 0.14086304 5.70703125 0.203125 C6.93063354 0.25194824 6.93063354 0.25194824 8.17895508 0.30175781 C10.1875 0.75 10.1875 0.75 12.1875 3.75 C3.3851098 3.89569473 -5.29028987 3.4548247 -14.0625 2.75 C-15.91294922 2.60691406 -15.91294922 2.60691406 -17.80078125 2.4609375 C-20.80503233 2.22804982 -23.80889123 1.99100659 -26.8125 1.75 C-26.8125 1.42 -26.8125 1.09 -26.8125 0.75 C-17.83959479 -0.15847171 -9.01166713 -0.32926395 0 0 Z " fill="#79766A" transform="translate(203.8125,492.25)"/>
<path d="M0 0 C0.66 0.33 1.32 0.66 2 1 C0.6078125 1.8353125 0.6078125 1.8353125 -0.8125 2.6875 C-4.08948974 4.73684884 -4.08948974 4.73684884 -5.5625 7.6875 C-7 10 -7 10 -9.3125 10.625 C-10.6428125 10.810625 -10.6428125 10.810625 -12 11 C-14.02237052 11.95394836 -16.0282696 12.94535351 -18 14 C-18 14.66 -18 15.32 -18 16 C-20.64 16.66 -23.28 17.32 -26 18 C-21.71214154 13.22588955 -16.75468007 10.09651013 -11.3125 6.75 C-10.44560547 6.20859375 -9.57871094 5.6671875 -8.68554688 5.109375 C-2.43105159 1.21552579 -2.43105159 1.21552579 0 0 Z " fill="#D8403A" transform="translate(142,51)"/>
<path d="M0 0 C3.72553745 1.21296568 7.36968912 2.52825235 11 4 C11.99 4.33 12.98 4.66 14 5 C14 5.66 14 6.32 14 7 C15.65 7.33 17.3 7.66 19 8 C19 8.99 19 9.98 19 11 C21.64 11.33 24.28 11.66 27 12 C27.66 14.31 28.32 16.62 29 19 C22.5710869 15.32322737 16.23344385 11.59131546 10.11328125 7.41796875 C7.27518062 5.51366093 4.3608928 3.74369566 1.43359375 1.98046875 C0.96050781 1.65691406 0.48742187 1.33335938 0 1 C0 0.67 0 0.34 0 0 Z " fill="#381714" transform="translate(351,46)"/>
<path d="M0 0 C2.375 0.3125 2.375 0.3125 5 1 C8.16024478 5.74036717 7.71804533 10.85166469 8 16.4375 C8.08894531 17.58283203 8.17789062 18.72816406 8.26953125 19.90820312 C8.42755331 23.04843227 8.50270421 25.89526639 8 29 C5.1484375 31.70703125 5.1484375 31.70703125 2 33 C1.21625 33.4125 0.4325 33.825 -0.375 34.25 C-0.91125 34.4975 -1.4475 34.745 -2 35 C-1.1028125 34.071875 -1.1028125 34.071875 -0.1875 33.125 C5.39101373 25.15569467 6.64739689 14.48337024 5 5 C2.61863788 2.0587858 2.61863788 2.0587858 0 0 Z " fill="#D83C3A" transform="translate(336,175)"/>
<path d="M0 0 C0 0.99 0 1.98 0 3 C-1.8984375 4.82421875 -1.8984375 4.82421875 -4.375 6.6875 C-5.18710937 7.31011719 -5.99921875 7.93273437 -6.8359375 8.57421875 C-9 10 -9 10 -11 10 C-11.33 10.99 -11.66 11.98 -12 13 C-13.71484375 14.140625 -13.71484375 14.140625 -15.9375 15.25 C-20.58176385 17.67244803 -24.66782264 20.57971305 -28.8359375 23.7421875 C-29.55007813 24.15726562 -30.26421875 24.57234375 -31 25 C-31.99 24.67 -32.98 24.34 -34 24 C-33.07960938 23.39414062 -32.15921875 22.78828125 -31.2109375 22.1640625 C-24.52898058 17.74795948 -17.89342076 13.2800084 -11.375 8.625 C-10.8082959 8.22104004 -10.2415918 7.81708008 -9.65771484 7.40087891 C-6.35697162 5.02911689 -3.15182653 2.56598517 0 0 Z " fill="#C32720" transform="translate(367,362)"/>
<path d="M0 0 C13.75092365 0.45084996 27.26793229 6.13606402 40 11 C37.35261084 12.4606285 36.10551666 13 33 13 C32.27039063 12.39414062 31.54078125 11.78828125 30.7890625 11.1640625 C27.52194699 8.62907372 24.2838522 7.51153748 20.375 6.375 C19.32300415 6.05535278 19.32300415 6.05535278 18.24975586 5.72924805 C13.20041331 4.23654445 8.16406448 3.16532022 2.94140625 2.45703125 C1.98041016 2.23080078 1.98041016 2.23080078 1 2 C0.67 1.34 0.34 0.68 0 0 Z " fill="#D24740" transform="translate(296,29)"/>
<path d="M0 0 C-3 2 -3 2 -6 2 C-6 2.66 -6 3.32 -6 4 C-9.5623677 5.45865666 -13.12491741 6.91686827 -16.6875 8.375 C-18.19860352 8.99375 -18.19860352 8.99375 -19.74023438 9.625 C-20.71669922 10.02460938 -21.69316406 10.42421875 -22.69921875 10.8359375 C-23.59471436 11.20251465 -24.49020996 11.5690918 -25.4128418 11.94677734 C-27.93790151 12.97471993 -30.46762064 13.99024117 -33 15 C-33 14.01 -33 13.02 -33 12 C-32.42636719 11.81566406 -31.85273438 11.63132812 -31.26171875 11.44140625 C-23.69010388 8.85625702 -16.59934274 5.50333038 -9.46362305 1.91040039 C-8.67125244 1.52102295 -7.87888184 1.13164551 -7.0625 0.73046875 C-6.35222656 0.37364014 -5.64195312 0.01681152 -4.91015625 -0.35083008 C-3 -1 -3 -1 0 0 Z " fill="#C0281F" transform="translate(332,389)"/>
<path d="M0 0 C4.05819183 0.65503282 7.53971282 1.94559121 11.3125 3.5625 C12.38113281 4.01753906 13.44976562 4.47257812 14.55078125 4.94140625 C15.76314453 5.46541016 15.76314453 5.46541016 17 6 C14.09064546 7.62737868 11.68626361 8.34972896 8.375 8.6875 C7.59898437 8.77386719 6.82296875 8.86023438 6.0234375 8.94921875 C4 9 4 9 2 8 C2.33 6.68 2.66 5.36 3 4 C2.34 4 1.68 4 1 4 C0.67 2.68 0.34 1.36 0 0 Z " fill="#E34035" transform="translate(215,276)"/>
<path d="M0 0 C4.49987562 -0.08767743 8.999529 -0.14062009 13.5 -0.1875 C15.40265625 -0.22520508 15.40265625 -0.22520508 17.34375 -0.26367188 C24.37638397 -0.31861433 29.59314616 0.09878317 36 3 C39.3347049 3.2535421 39.3347049 3.2535421 42 3 C42.495 3.99 42.495 3.99 43 5 C42.67 5.66 42.34 6.32 42 7 C41.35933594 6.80664062 40.71867187 6.61328125 40.05859375 6.4140625 C38.76115234 6.02347656 38.76115234 6.02347656 37.4375 5.625 C36.59058594 5.36976563 35.74367188 5.11453125 34.87109375 4.8515625 C33.92363281 4.57054687 32.97617187 4.28953125 32 4 C31.01 3.6390625 30.02 3.278125 29 2.90625 C23.35071438 1.29833489 17.37827241 1.79250677 11.5625 1.875 C9.74975586 1.88853516 9.74975586 1.88853516 7.90039062 1.90234375 C4.93338722 1.92579832 1.96679857 1.95862206 -1 2 C-0.67 1.34 -0.34 0.68 0 0 Z " fill="#BD3C33" transform="translate(276,249)"/>
<path d="M0 0 C0.33 0 0.66 0 1 0 C1.8410478 3.6464806 2.11764968 6.99950907 2.09765625 10.73828125 C2.09443359 11.80498047 2.09121094 12.87167969 2.08789062 13.97070312 C2.07951172 15.07349609 2.07113281 16.17628906 2.0625 17.3125 C2.05798828 18.43462891 2.05347656 19.55675781 2.04882812 20.71289062 C2.03707313 23.4753151 2.02064077 26.23762998 2 29 C1.34 29 0.68 29 0 29 C-0.19925938 25.66726265 -0.38223367 22.33381434 -0.5625 19 C-0.61857422 18.06542969 -0.67464844 17.13085938 -0.73242188 16.16796875 C-1.02366812 10.61487364 -0.87461303 5.49386553 0 0 Z " fill="#181915" transform="translate(494,222)"/>
<path d="M0 0 C0.66 0.33 1.32 0.66 2 1 C0.38544922 2.03447266 0.38544922 2.03447266 -1.26171875 3.08984375 C-9.46328329 8.36153765 -17.58370424 13.7109409 -25.55859375 19.3203125 C-28 21 -28 21 -30 22 C-28.47704587 17.74353846 -25.32663285 15.72066215 -21.75 13.25 C-21.13608398 12.81969482 -20.52216797 12.38938965 -19.88964844 11.94604492 C-15.45113075 8.88455083 -10.90942593 6.0249952 -6.25 3.3125 C-5.65413086 2.96155273 -5.05826172 2.61060547 -4.44433594 2.24902344 C-2.99869607 1.43243454 -1.50244088 0.70665652 0 0 Z " fill="#DD372E" transform="translate(164,83)"/>
<path d="M0 0 C3.44843911 3.31026124 6.34546365 6.67854712 9.125 10.5625 C13.97293477 17.14359188 19.37988052 23.07523853 25 29 C24.67 29.66 24.34 30.32 24 31 C20.37066869 27.4102614 16.83892202 23.7494101 13.375 20 C12.89804688 19.49210937 12.42109375 18.98421875 11.9296875 18.4609375 C9.17766397 15.47957868 7.05325985 12.48431974 5 9 C4.34 8.67 3.68 8.34 3 8 C0 2.57692308 0 2.57692308 0 0 Z " fill="#3C1815" transform="translate(63,373)"/>
<path d="M0 0 C0.57421875 1.8984375 0.57421875 1.8984375 1 4 C-0.40941682 5.92867564 -1.65411566 6.84298184 -3.82421875 7.828125 C-7.36663933 9.73607145 -10.05096651 12.58910827 -12.9765625 15.3203125 C-15 17 -15 17 -17 17 C-17.33 17.99 -17.66 18.98 -18 20 C-21.0625 21.1875 -21.0625 21.1875 -24 22 C-19.86994885 17.74689332 -15.47215531 13.96493625 -10.90429688 10.19335938 C-7.05400516 6.98098581 -3.50385094 3.58840843 0 0 Z " fill="#2F1711" transform="translate(405,408)"/>
<path d="M0 0 C1.92382275 2.88573413 2.35662848 4.06561591 2.8515625 7.3515625 C2.98046875 8.20363281 3.109375 9.05570313 3.2421875 9.93359375 C3.36851562 10.82175781 3.49484375 11.70992187 3.625 12.625 C3.7590625 13.48996094 3.893125 14.35492188 4.03125 15.24609375 C4.86049282 20.89002194 5.1272522 26.29678773 5 32 C3.13575193 30.42210687 2.10702822 29.49580539 1.58349609 27.07055664 C1.56367676 26.35762451 1.54385742 25.64469238 1.5234375 24.91015625 C1.47703125 23.73356445 1.47703125 23.73356445 1.4296875 22.53320312 C1.41164063 21.71787109 1.39359375 20.90253906 1.375 20.0625 C1.32374047 18.44910619 1.26916467 16.83581362 1.2109375 15.22265625 C1.18459229 14.15156616 1.18459229 14.15156616 1.15771484 13.05883789 C1.0571232 10.98607129 1.0571232 10.98607129 0.49072266 8.97045898 C-0.25197216 5.98822522 -0.05878273 3.05670212 0 0 Z " fill="#858276" transform="translate(491,195)"/>
<path d="M0 0 C4.10342196 2.24230708 7.33881857 5.0326933 10.6875 8.25 C15.78599321 13.04956655 21.11409818 17.18458134 27 21 C26.01 21.33 25.02 21.66 24 22 C20.8125 20.1875 20.8125 20.1875 18 18 C18 17.34 18 16.68 18 16 C17.236875 15.731875 16.47375 15.46375 15.6875 15.1875 C13.00036494 14.00016125 11.91290422 13.15201724 10 11 C6.74590787 7.47153594 6.74590787 7.47153594 2.75 4.9375 C1 4 1 4 0.25 1.875 C0.1675 1.25625 0.085 0.6375 0 0 Z " fill="#361813" transform="translate(93,409)"/>
<path d="M0 0 C1.65 0 3.3 0 5 0 C-0.88561737 4.9678107 -9.91505198 8.26293514 -17.625 8.4375 C-21 8 -21 8 -25 6 C-20.38 6 -15.76 6 -11 6 C-11 5.34 -11 4.68 -11 4 C-9.68 4 -8.36 4 -7 4 C-7 3.34 -7 2.68 -7 2 C-4.69 2 -2.38 2 0 2 C0 1.34 0 0.68 0 0 Z " fill="#D3413B" transform="translate(263,253)"/>
<path d="M0 0 C0.66 0.33 1.32 0.66 2 1 C1.34 1.66 0.68 2.32 0 3 C0.99 3.66 1.98 4.32 3 5 C2.34 6.32 1.68 7.64 1 9 C-0.98 9 -2.96 9 -5 9 C-5.33 9.66 -5.66 10.32 -6 11 C-7.65 10.67 -9.3 10.34 -11 10 C-7.50640535 6.40365256 -3.88901869 3.16548033 0 0 Z " fill="#3B3934" transform="translate(108,45)"/>
<path d="M0 0 C0 4.20564328 -2.0995339 5.89943032 -4.6875 9.0625 C-6.28042407 11.02392507 -6.28042407 11.02392507 -6 14 C-6.3125 16.0625 -6.3125 16.0625 -7 18 C-7.99 18.66 -8.98 19.32 -10 20 C-10 19.34 -10 18.68 -10 18 C-10.99 17.67 -11.98 17.34 -13 17 C-8.94769274 11.04142986 -4.7963339 5.38125267 0 0 Z " fill="#6D6A60" transform="translate(62,87)"/>
<path d="M0 0 C0.99 0.33 1.98 0.66 3 1 C-3.66205247 7.294753 -10.31185878 12.96351703 -18 18 C-18.66 17.67 -19.32 17.34 -20 17 C-15.25 13 -15.25 13 -13 13 C-13 12.34 -13 11.68 -13 11 C-11.42578125 9.66796875 -11.42578125 9.66796875 -9.3125 8.1875 C-5.85714975 5.6895825 -2.91826739 3.1006591 0 0 Z " fill="#E93D36" transform="translate(373,354)"/>
<path d="M0 0 C0.33 0 0.66 0 1 0 C1.56081859 9.61700032 -0.15190851 18.61653547 -2 28 C-2.33 28 -2.66 28 -3 28 C-3.33 23.71 -3.66 19.42 -4 15 C-3.01 14.67 -2.02 14.34 -1 14 C-0.67 9.38 -0.34 4.76 0 0 Z " fill="#B03731" transform="translate(472,265)"/>
<path d="M0 0 C0.33 0 0.66 0 1 0 C1 2.31 1 4.62 1 7 C1.66 7 2.32 7 3 7 C2.67 13.93 2.34 20.86 2 28 C1.67 28 1.34 28 1 28 C-0.25406138 22.21354356 -0.11186913 16.51131884 -0.0625 10.625 C-0.05798828 9.60277344 -0.05347656 8.58054688 -0.04882812 7.52734375 C-0.037103 5.01816806 -0.02069176 2.5091151 0 0 Z " fill="#171712" transform="translate(4,244)"/>
<path d="M0 0 C3.57040313 1.08194034 5.68874752 2.57346089 8.3125 5.125 C10.95879863 7.49395729 12.6114853 8.43353133 16.1875 8.5 C19.38336397 8.0808703 21.3589244 7.76071707 24 6 C23.67 7.32 23.34 8.64 23 10 C16.86090397 11.43680971 12.79622721 10.32637691 7 8 C7 7.34 7 6.68 7 6 C6.34 6 5.68 6 5 6 C5 5.34 5 4.68 5 4 C4.01 4 3.02 4 2 4 C2 3.34 2 2.68 2 2 C1.34 2 0.68 2 0 2 C0 1.34 0 0.68 0 0 Z " fill="#C93F38" transform="translate(314,281)"/>
<path d="M0 0 C0.66 0.33 1.32 0.66 2 1 C1.67 1.99 1.34 2.98 1 4 C0.01 4 -0.98 4 -2 4 C-1.67 5.32 -1.34 6.64 -1 8 C-2.65 8 -4.3 8 -6 8 C-6.13277344 8.56203125 -6.26554688 9.1240625 -6.40234375 9.703125 C-7.02437111 12.09366153 -7.77115041 14.41035775 -8.5625 16.75 C-8.83191406 17.54921875 -9.10132813 18.3484375 -9.37890625 19.171875 C-9.58386719 19.77515625 -9.78882813 20.3784375 -10 21 C-10.33 21 -10.66 21 -11 21 C-10.57250533 11.38136985 -6.82084579 6.51080735 0 0 Z " fill="#381A16" transform="translate(163,262)"/>
<path d="M0 0 C5.84034773 1.31407824 10.08483442 4.57091053 14 9 C14.73046875 11.2265625 14.73046875 11.2265625 15 13 C11.12207603 11.38419835 8.28921212 8.75734641 5.25 5.9375 C4.74339844 5.47794922 4.23679687 5.01839844 3.71484375 4.54492188 C2.45382769 3.38757425 1.22393107 2.19649813 0 1 C0 0.67 0 0.34 0 0 Z " fill="#5A574F" transform="translate(404,57)"/>
<path d="M0 0 C-3.19000256 1.0656867 -4.71984276 0.97114748 -7.75 -0.4375 C-12.04182262 -2.20093181 -15.38431105 -2.323908 -20 -2 C-20.33 -1.67 -20.66 -1.34 -21 -1 C-22.51928038 -0.92820036 -24.04167482 -0.91607993 -25.5625 -0.9375 C-26.38878906 -0.94652344 -27.21507812 -0.95554687 -28.06640625 -0.96484375 C-28.70449219 -0.97644531 -29.34257812 -0.98804688 -30 -1 C-22.6955417 -8.3044583 -8.10280875 -3.63733299 0 0 Z " fill="#BF3E36" transform="translate(308,276)"/>
<path d="M0 0 C0.845625 0.78375 1.69125 1.5675 2.5625 2.375 C8.4585156 7.24024364 15.65536995 7.43843875 23 8 C23 8.66 23 9.32 23 10 C19.37 10 15.74 10 12 10 C12 9.34 12 8.68 12 8 C9.69 8 7.38 8 5 8 C5 7.34 5 6.68 5 6 C4.360625 5.7525 3.72125 5.505 3.0625 5.25 C1 4 1 4 0.25 1.875 C0.1675 1.25625 0.085 0.6375 0 0 Z " fill="#CC403B" transform="translate(153,207)"/>
<path d="M0 0 C6.86515862 -0.26404456 13.25846717 0.74158054 20 2 C20 1.34 20 0.68 20 0 C21.65 0 23.3 0 25 0 C25 0.66 25 1.32 25 2 C25.99 2.66 26.98 3.32 28 4 C21.67131138 4.17743987 15.74233484 3.50712088 9.5 2.5 C8.5821875 2.35691406 7.664375 2.21382813 6.71875 2.06640625 C4.47825881 1.7163295 2.23879053 1.3607651 0 1 C0 0.67 0 0.34 0 0 Z " fill="#7B786C" transform="translate(148,489)"/>
<path d="M0 0 C1.0650862 3.19525861 0.97488082 5.16461018 0.8125 8.5 C0.72538776 14.99382121 2.40194065 20.10797255 5 26 C4.34 26.33 3.68 26.66 3 27 C2.01 25.02 1.02 23.04 0 21 C-0.99 21 -1.98 21 -3 21 C-2.67 20.34 -2.34 19.68 -2 19 C-1.79243503 16.16327881 -1.62592736 13.34036163 -1.5 10.5 C-1.13513514 2.27027027 -1.13513514 2.27027027 0 0 Z " fill="#DB433B" transform="translate(148,181)"/>
<path d="M0 0 C0.33 0.99 0.66 1.98 1 3 C1.99 3.33 2.98 3.66 4 4 C4.33 4.99 4.66 5.98 5 7 C4.01 7.66 3.02 8.32 2 9 C1.42251197 10.96361864 1.42251197 10.96361864 1.3125 13.125 C1.209375 14.40375 1.10625 15.6825 1 17 C-1.40503353 13.3924497 -1.2396541 11.65163611 -1.1875 7.375 C-1.18105469 6.20710937 -1.17460937 5.03921875 -1.16796875 3.8359375 C-1 1 -1 1 0 0 Z " fill="#291A1A" transform="translate(297,183)"/>
<path d="M0 0 C0.33 0.99 0.66 1.98 1 3 C-0.3125 5.4375 -0.3125 5.4375 -2 8 C-2.68096422 9.32608822 -3.35330586 10.65686601 -4 12 C-4.721875 11.835 -5.44375 11.67 -6.1875 11.5 C-8.86427545 11.02412881 -11.28949487 10.922557 -14 11 C-11 9 -11 9 -8.125 7.75 C-4.33231132 5.62609434 -2.60165826 3.44337123 0 0 Z " fill="#D63D38" transform="translate(190,204)"/>
<path d="M0 0 C4.88564575 3.94609849 9.05810377 8.11522946 13 13 C13.78375 13.969375 14.5675 14.93875 15.375 15.9375 C15.91125 16.618125 16.4475 17.29875 17 18 C16.67 18.66 16.34 19.32 16 20 C12.38348454 18.33835776 11.18091742 17.43584652 9.625 13.6875 C9.40328125 13.07648438 9.1815625 12.46546875 8.953125 11.8359375 C7.45960349 8.9590723 5.10296735 7.34542124 2.5234375 5.45703125 C0.70121691 3.71424079 0.38894279 2.45454438 0 0 Z " fill="#C83F37" transform="translate(411,93)"/>
<path d="M0 0 C1.94024048 0.07069702 1.94024048 0.07069702 3.91967773 0.14282227 C4.9496714 0.17823875 4.9496714 0.17823875 6.00047302 0.21437073 C8.20160776 0.29117032 10.40240492 0.37512354 12.60327148 0.45922852 C14.09218705 0.51243295 15.58111928 0.56517344 17.07006836 0.61743164 C20.72717821 0.74680703 24.3840182 0.8826009 28.04077148 1.02172852 C28.04077148 1.35172852 28.04077148 1.68172852 28.04077148 2.02172852 C27.18845947 2.03631104 26.33614746 2.05089355 25.45800781 2.06591797 C22.28005974 2.12716137 19.10274602 2.20134881 15.92529297 2.28417969 C14.55301191 2.31732657 13.18059787 2.34539022 11.80810547 2.36816406 C9.82939382 2.40189618 7.85105772 2.45574342 5.87280273 2.51000977 C4.08966675 2.54928589 4.08966675 2.54928589 2.27050781 2.58935547 C-1.18826066 3.05238963 -3.13575034 4.02224974 -5.95922852 6.02172852 C-3.65349688 0.02682627 -3.65349688 0.02682627 0 0 Z " fill="#DB453D" transform="translate(304.959228515625,171.978271484375)"/>
<path d="M0 0 C3.84089075 2.14841191 6.99551794 4.60520867 10.25 7.5625 C11.12140625 8.34753906 11.9928125 9.13257812 12.890625 9.94140625 C15 12 15 12 16 14 C15.01 14 14.02 14 13 14 C13 13.34 13 12.68 13 12 C12.34 12 11.68 12 11 12 C10.443125 11.21625 9.88625 10.4325 9.3125 9.625 C6.45226918 6.3782515 4.16371937 5.88078679 0 5 C0 3.33333333 0 1.66666667 0 0 Z " fill="#D0433A" transform="translate(387,71)"/>
<path d="M0 0 C-1.30324219 0.39832031 -1.30324219 0.39832031 -2.6328125 0.8046875 C-3.78523438 1.15789063 -4.93765625 1.51109375 -6.125 1.875 C-7.26195312 2.22304688 -8.39890625 2.57109375 -9.5703125 2.9296875 C-11.79818305 3.62494551 -14.01560604 4.3549691 -16.21875 5.125 C-19.27911891 6.08781269 -21.81106886 6.15185386 -25 6 C-22.03050913 4.02033942 -19.55805388 3.05253858 -16.1875 1.9375 C-15.17042969 1.59589844 -14.15335938 1.25429688 -13.10546875 0.90234375 C-4.56348302 -1.5796672 -4.56348302 -1.5796672 0 0 Z " fill="#C6433C" transform="translate(208,29)"/>
<path d="M0 0 C4.90829211 1.19714442 7.58199039 3.23455451 11.1953125 6.55078125 C13.03322826 8.0266833 14.61716097 8.8006092 16.8125 9.625 C20 11 20 11 21.4375 13.1875 C21.623125 13.785625 21.80875 14.38375 22 15 C17.01318069 13.35081566 13.01990842 10.47204057 8.75 7.5 C8.0178125 7.00113281 7.285625 6.50226563 6.53125 5.98828125 C1.12802776 2.25605552 1.12802776 2.25605552 0 0 Z " fill="#AA3834" transform="translate(112,424)"/>
<path d="M0 0 C0.86625 0.804375 1.7325 1.60875 2.625 2.4375 C5.62876093 4.96924136 8.03203262 5.71657376 12 6 C12.33 5.01 12.66 4.02 13 3 C15 2 15 2 17 1 C17.99 1.66 18.98 2.32 20 3 C15.52437316 6.76894892 12.14354918 7.68556285 6.28125 7.46484375 C4 7 4 7 1.375 4.625 C0 2 0 2 0 0 Z " fill="#381713" transform="translate(153,283)"/>
<path d="M0 0 C1.65 0 3.3 0 5 0 C5.33 0.99 5.66 1.98 6 3 C7.99371825 4.34270821 9.9934562 5.67653494 12 7 C12 7.66 12 8.32 12 9 C12.61488281 9.06058594 13.22976563 9.12117188 13.86328125 9.18359375 C14.67152344 9.26738281 15.47976563 9.35117187 16.3125 9.4375 C17.11300781 9.51871094 17.91351563 9.59992188 18.73828125 9.68359375 C21 10 21 10 24 11 C20.63328316 12.68335842 17.59524261 12.83928677 14 12 C8.74093777 8.68553114 4.33983363 4.4194636 0 0 Z " fill="#3A1610" transform="translate(312,278)"/>
<path d="M0 0 C0.66 0 1.32 0 2 0 C4.1244975 3.54082916 4.46508363 6.94991891 5 11 C5.33 11.33 5.66 11.66 6 12 C6.23427778 14.01594582 6.41336124 16.038474 6.5625 18.0625 C6.64628906 19.16722656 6.73007812 20.27195313 6.81640625 21.41015625 C6.87699219 22.26480469 6.93757813 23.11945313 7 24 C5.19015657 21.28523485 4.50635562 19.68908906 3.7109375 16.62109375 C3.49179687 15.78255859 3.27265625 14.94402344 3.046875 14.08007812 C2.82515625 13.20802734 2.6034375 12.33597656 2.375 11.4375 C2.14554687 10.56158203 1.91609375 9.68566406 1.6796875 8.78320312 C0 2.28941127 0 2.28941127 0 0 Z " fill="#3A1916" transform="translate(463,176)"/>
<path d="M0 0 C0 2 0 2 -1.5625 3.875 C-3.92557154 5.93511365 -6.30530842 7.24179282 -9.05078125 8.71875 C-12.86843054 11.22814673 -15.89487049 14.67710816 -19 18 C-19.66 17.67 -20.32 17.34 -21 17 C-4.70833333 0 -4.70833333 0 0 0 Z " fill="#CF433E" transform="translate(116,69)"/>
<path d="M0 0 C1.98 0 3.96 0 6 0 C3.59189779 1.60540148 1.22506183 2.99884384 -1.3125 4.375 C-5.01632004 6.41452182 -8.5248476 8.59412526 -12 11 C-12 9.35 -12 7.7 -12 6 C-11.195625 5.87625 -10.39125 5.7525 -9.5625 5.625 C-8.716875 5.41875 -7.87125 5.2125 -7 5 C-6.67 4.34 -6.34 3.68 -6 3 C-2.9375 2.375 -2.9375 2.375 0 2 C0 1.34 0 0.68 0 0 Z " fill="#301311" transform="translate(186,273)"/>
<path d="M0 0 C2.5625 2.0625 2.5625 2.0625 5 5 C5.16212934 9.45855682 4.21159587 12.06725172 1.4375 15.4375 C0.633125 16.283125 -0.17125 17.12875 -1 18 C-2.32 17.67 -3.64 17.34 -5 17 C-4.195625 16.731875 -3.39125 16.46375 -2.5625 16.1875 C-1.716875 15.795625 -0.87125 15.40375 0 15 C1.60116168 10.19651495 1.6117046 4.8351138 0 0 Z " fill="#E03A31" transform="translate(203,52)"/>
<path d="M0 0 C4.6009187 0.46009187 7.90008057 0.88391255 12 3 C14.32495277 3.38749213 16.65851268 3.72982839 19 4 C19.33 5.32 19.66 6.64 20 8 C13.27954125 5.80962826 6.63275997 3.44234339 0 1 C0 0.67 0 0.34 0 0 Z " fill="#C14338" transform="translate(216,251)"/>
<path d="M0 0 C0 0.99 0 1.98 0 3 C5.28 3 10.56 3 16 3 C16 3.33 16 3.66 16 4 C8.26663304 5.62807725 0.89531717 6.35493716 -6 2 C-2.25 0 -2.25 0 0 0 Z " fill="#3A1812" transform="translate(312,210)"/>
<path d="M0 0 C0.33 1.32 0.66 2.64 1 4 C0.34 4 -0.32 4 -1 4 C-1 4.66 -1 5.32 -1 6 C-2.2848951 7.38007251 -3.63015802 8.70420353 -5 10 C-5.825 10.86625 -6.65 11.7325 -7.5 12.625 C-9.70765443 14.72227171 -11.29855337 15.75229795 -14 17 C-9.68339698 10.99926777 -4.97966692 5.45993937 0 0 Z " fill="#321915" transform="translate(428,383)"/>
<path d="M0 0 C0.66 0.33 1.32 0.66 2 1 C0.39852104 3.10626032 -1.20604875 5.21003738 -2.8125 7.3125 C-3.26431641 7.90740234 -3.71613281 8.50230469 -4.18164062 9.11523438 C-6.31610234 11.90405661 -8.41080206 14.61724973 -11 17 C-11.66 16.67 -12.32 16.34 -13 16 C-12.04956626 14.66102417 -11.08940853 13.32894573 -10.125 12 C-9.32449219 10.88625 -9.32449219 10.88625 -8.5078125 9.75 C-8.01023437 9.1725 -7.51265625 8.595 -7 8 C-6.34 8 -5.68 8 -5 8 C-4.731875 7.236875 -4.46375 6.47375 -4.1875 5.6875 C-3.05575888 3.12619116 -2.08776599 1.80307062 0 0 Z " fill="#C1271E" transform="translate(404,322)"/>
<path d="M0 0 C3.8560627 1.72857983 6.20168409 3.36287389 8.078125 7.2109375 C9.13345969 10.40377212 9.19870875 12.95875209 9.125 16.3125 C9.10695313 17.38113281 9.08890625 18.44976562 9.0703125 19.55078125 C9.03550781 20.76314453 9.03550781 20.76314453 9 22 C8.01 22.33 7.02 22.66 6 23 C6.165 22.505 6.33 22.01 6.5 21.5 C7.46650213 16.66748937 8.04501647 12.96175247 5.6953125 8.55078125 C4.19046498 6.31511066 2.61515211 4.15651889 1 2 C0.67 1.34 0.34 0.68 0 0 Z " fill="#CD4538" transform="translate(332,264)"/>
<path d="M0 0 C0.66 0 1.32 0 2 0 C1.67 5.61 1.34 11.22 1 17 C-1 14 -1 14 -1 10 C-2.32 10 -3.64 10 -5 10 C-5 9.34 -5 8.68 -5 8 C-3.68 7.67 -2.36 7.34 -1 7 C-0.67 4.69 -0.34 2.38 0 0 Z " fill="#D73D38" transform="translate(295,182)"/>
<path d="M0 0 C0 3.51053759 -0.45893547 3.84563597 -2.75 6.3125 C-4.84813917 8.63227359 -6.4379874 10.69562705 -8.125 13.375 C-10 16 -10 16 -12.25 16.875 C-12.8275 16.91625 -13.405 16.9575 -14 17 C-11.6315417 12.64300674 -8.68427143 9.26810372 -5.3125 5.6875 C-4.80138672 5.13771484 -4.29027344 4.58792969 -3.76367188 4.02148438 C-2.51302966 2.6773362 -1.25705376 1.338154 0 0 Z " fill="#D0413C" transform="translate(86,95)"/>
<path d="M0 0 C0.33 0.66 0.66 1.32 1 2 C1.99 2.33 2.98 2.66 4 3 C0.37 6.3 -3.26 9.6 -7 13 C-7.33 12.01 -7.66 11.02 -8 10 C-8.66 9.67 -9.32 9.34 -10 9 C-9.01 8.01 -8.02 7.02 -7 6 C-6.01 6.33 -5.02 6.66 -4 7 C-1.83284443 6.12516085 -1.83284443 6.12516085 0 5 C0 3.35 0 1.7 0 0 Z " fill="#331A17" transform="translate(105,71)"/>
<path d="M0 0 C-3.28517057 1.70037584 -6.57908139 3.38306535 -9.875 5.0625 C-11.28072266 5.79049805 -11.28072266 5.79049805 -12.71484375 6.53320312 C-13.61074219 6.98759766 -14.50664062 7.44199219 -15.4296875 7.91015625 C-16.25710449 8.33433838 -17.08452148 8.75852051 -17.93701172 9.19555664 C-18.95819092 9.5937561 -18.95819092 9.5937561 -20 10 C-20.66 9.67 -21.32 9.34 -22 9 C-19.963006 7.70043409 -17.92092385 6.4103739 -15.875 5.125 C-15.02035156 4.57779297 -15.02035156 4.57779297 -14.1484375 4.01953125 C-5.03294837 -1.67764946 -5.03294837 -1.67764946 0 0 Z " fill="#DF352E" transform="translate(168,60)"/>
<path d="M0 0 C3.07393213 3.07393213 3.84749009 6.92636988 5.1875 11 C5.47302734 11.83273438 5.75855469 12.66546875 6.05273438 13.5234375 C6.31763672 14.32007813 6.58253906 15.11671875 6.85546875 15.9375 C7.09934326 16.66839844 7.34321777 17.39929688 7.59448242 18.15234375 C8 20 8 20 7 22 C1.54507033 16.54507033 0.77557254 7.36793914 0 0 Z " fill="#993430" transform="translate(458,164)"/>
<path d="M0 0 C0.33 0.66 0.66 1.32 1 2 C-2.96 7.61 -6.92 13.22 -11 19 C-11.33 18.34 -11.66 17.68 -12 17 C-11.0625 14.875 -11.0625 14.875 -10 13 C-9.34 13 -8.68 13 -8 13 C-7.9175 12.2575 -7.835 11.515 -7.75 10.75 C-6.85280293 7.4602774 -5.45029221 6.29714895 -3 4 C-2.67 3.01 -2.34 2.02 -2 1 C-1.34 0.67 -0.68 0.34 0 0 Z " fill="#DE342D" transform="translate(88,120)"/>
<path d="M0 0 C0.33 0.99 0.66 1.98 1 3 C0.278125 3.556875 -0.44375 4.11375 -1.1875 4.6875 C-3.97457299 6.97909334 -6.48641528 9.41459857 -9 12 C-9.33 11.01 -9.66 10.02 -10 9 C-8.89902432 7.87187697 -7.79408444 6.74762189 -6.6875 5.625 C-6.07261719 4.99851562 -5.45773438 4.37203125 -4.82421875 3.7265625 C-3 2 -3 2 0 0 Z " fill="#201F19" transform="translate(82,68)"/>
<path d="M0 0 C3.34222953 1.58815162 6.43650243 3.45982807 9.5625 5.4375 C10.51253906 6.03433594 11.46257812 6.63117187 12.44140625 7.24609375 C14.57268623 8.70707804 16.27200375 10.09745867 18 12 C16.68 12 15.36 12 14 12 C13.67 11.34 13.34 10.68 13 10 C12.01 9.67 11.02 9.34 10 9 C10 8.34 10 7.68 10 7 C8.63875 6.5978125 8.63875 6.5978125 7.25 6.1875 C4.27008166 5.09868368 2.31409641 4.13608899 0 2 C0 1.34 0 0.68 0 0 Z " fill="#D5443D" transform="translate(364,55)"/>
<path d="M0 0 C2.47512452 2.90558095 3.80697424 5.13948478 4 9 C2.5625 11.3125 2.5625 11.3125 1 13 C0.67 12.01 0.34 11.02 0 10 C-0.66 11.32 -1.32 12.64 -2 14 C-1.03644647 4.58997722 -1.03644647 4.58997722 0 0 Z " fill="#625F5A" transform="translate(9,190)"/>
<path d="M0 0 C2.375 0.3125 2.375 0.3125 5 1 C7.10209857 4.15314785 7.2434761 4.86103081 7.1953125 8.44921875 C7.18886719 9.29677734 7.18242187 10.14433594 7.17578125 11.01757812 C7.15902344 11.89865234 7.14226562 12.77972656 7.125 13.6875 C7.11597656 14.58017578 7.10695313 15.47285156 7.09765625 16.39257812 C7.07409748 18.59532314 7.04120329 20.79752588 7 23 C6.34 23.33 5.68 23.66 5 24 C5.05800781 22.68644531 5.11601562 21.37289062 5.17578125 20.01953125 C5.22269048 18.28388977 5.26818939 16.54820977 5.3125 14.8125 C5.35439453 13.94818359 5.39628906 13.08386719 5.43945312 12.19335938 C5.61956379 7.49307938 5.61956379 7.49307938 3.86474609 3.27099609 C2.37287916 1.71696695 2.37287916 1.71696695 0 0 Z " fill="#C8443C" transform="translate(336,175)"/>
<path d="M0 0 C0.66 0.33 1.32 0.66 2 1 C-1.16630224 4.89002847 -4.45021135 8.45021135 -8 12 C-9.02813611 13.31175986 -10.04084432 14.6369893 -11 16 C-11.99 15.67 -12.98 15.34 -14 15 C-9.38 10.05 -4.76 5.1 0 0 Z " fill="#E03831" transform="translate(118,118)"/>
<path d="M0 0 C0.99 0.33 1.98 0.66 3 1 C1.85485202 6.41342681 0.65987191 8.9342948 -4 12 C-4.33 10.68 -4.66 9.36 -5 8 C-4.01 7.67 -3.02 7.34 -2 7 C-0.77030122 3.48809191 -0.77030122 3.48809191 0 0 Z " fill="#351D1F" transform="translate(87,86)"/>
<path d="M0 0 C0.66 0 1.32 0 2 0 C2 0.66 2 1.32 2 2 C-4.24309927 4.77471079 -9.19796625 5.37634203 -16 5 C-16.33 4.34 -16.66 3.68 -17 3 C-15.85660156 2.86722656 -14.71320313 2.73445312 -13.53515625 2.59765625 C-12.0442438 2.4194969 -10.55335982 2.24109918 -9.0625 2.0625 C-7.93038086 1.93198242 -7.93038086 1.93198242 -6.77539062 1.79882812 C-3.07812542 1.65675901 -3.07812542 1.65675901 0 0 Z " fill="#C74238" transform="translate(329,212)"/>
<path d="M0 0 C3.84762566 3.4201117 6.60634022 7.46774256 9 12 C9 12.66 9 13.32 9 14 C8.34 14 7.68 14 7 14 C6.67 12.68 6.34 11.36 6 10 C5.34 10 4.68 10 4 10 C3.34 11.32 2.68 12.64 2 14 C1.67 12.68 1.34 11.36 1 10 C1.66 9.67 2.32 9.34 3 9 C2.690625 8.2575 2.38125 7.515 2.0625 6.75 C1.1905075 4.49307824 0.52332993 2.3549847 0 0 Z " fill="#AA362E" transform="translate(436,124)"/>
<path d="M0 0 C0.66 0.33 1.32 0.66 2 1 C0.78521149 2.18163051 -0.44752408 3.34482835 -1.6875 4.5 C-2.37199219 5.1496875 -3.05648437 5.799375 -3.76171875 6.46875 C-6.40656372 8.27813784 -7.86162389 8.3077917 -11 8 C-7.71644638 4.32241995 -4.37221763 2.18610882 0 0 Z " fill="#FD9280" transform="translate(145,71)"/>
<path d="M0 0 C11.70615034 1.74259681 11.70615034 1.74259681 16 5 C14 6 14 6 10.875 5.0625 C9.92625 4.711875 8.9775 4.36125 8 4 C7.67 4.66 7.34 5.32 7 6 C6.01 6 5.02 6 4 6 C4 4.68 4 3.36 4 2 C2.68 1.67 1.36 1.34 0 1 C0 0.67 0 0.34 0 0 Z " fill="#51504B" transform="translate(427,423)"/>
<path d="M0 0 C0.33 0 0.66 0 1 0 C1.22281874 1.91503674 1.42771076 3.83216506 1.625 5.75 C1.74101563 6.81734375 1.85703125 7.8846875 1.9765625 8.984375 C2.00103803 12.13355924 1.51253478 13.33082097 0 16 C-0.44500285 18.12593058 -0.44500285 18.12593058 -0.625 20.25 C-0.74875 21.4875 -0.8725 22.725 -1 24 C-1.33 24 -1.66 24 -2 24 C-2.28545428 15.86455314 -1.18396883 8.02350304 0 0 Z " fill="#A8A394" transform="translate(6,204)"/>
<path d="M0 0 C0.66 0 1.32 0 2 0 C0.42986223 5.96652354 -2.75029782 10.82909025 -6 16 C-6.33 15.01 -6.66 14.02 -7 13 C-6.00664799 11.32936253 -5.00568242 9.66324401 -4 8 C-3.28598768 4.80604974 -3.28598768 4.80604974 -3 2 C-2.01 2.33 -1.02 2.66 0 3 C0 2.01 0 1.02 0 0 Z " fill="#341611" transform="translate(53,136)"/>
<path d="M0 0 C1.32 0 2.64 0 4 0 C4.66666667 1.33333333 5.33333333 2.66666667 6 4 C5.01 5.485 5.01 5.485 4 7 C1.525 6.01 1.525 6.01 -1 5 C-0.67 3.35 -0.34 1.7 0 0 Z " fill="#2D2E29" transform="translate(25,145)"/>
<path d="M0 0 C6.14154225 0.58490879 12.00679849 1.54066252 18 3 C18 3.99 18 4.98 18 6 C11.98922864 4.36959185 5.98336072 2.72852643 0 1 C0 0.67 0 0.34 0 0 Z " fill="#471916" transform="translate(306,30)"/>
<path d="M0 0 C-0.33 2.31 -0.66 4.62 -1 7 C-2.32 6.67 -3.64 6.34 -5 6 C-5 5.34 -5 4.68 -5 4 C-6.65 4.33 -8.3 4.66 -10 5 C-8.28489314 1.56978628 -3.75681361 0 0 0 Z " fill="#191917" transform="translate(70,424)"/>
<path d="M0 0 C0.33 0.66 0.66 1.32 1 2 C-0.3984375 4.8203125 -0.3984375 4.8203125 -2.375 8.125 C-3.02210938 9.22070312 -3.66921875 10.31640625 -4.3359375 11.4453125 C-4.88507813 12.28835938 -5.43421875 13.13140625 -6 14 C-6.33 14 -6.66 14 -7 14 C-6.67 11.36 -6.34 8.72 -6 6 C-5.01 5.67 -4.02 5.34 -3 5 C-2.6278958 3.67696283 -2.29369827 2.34262065 -2 1 C-1.34 0.67 -0.68 0.34 0 0 Z " fill="#777568" transform="translate(468,361)"/>
<path d="M0 0 C0.33 0 0.66 0 1 0 C1 2.31 1 4.62 1 7 C0.34 7 -0.32 7 -1 7 C-0.938125 8.093125 -0.87625 9.18625 -0.8125 10.3125 C-1 14 -1 14 -2.5 15.9375 C-2.995 16.288125 -3.49 16.63875 -4 17 C-3.45018084 10.95198929 -2.09570426 5.69398894 0 0 Z " fill="#3B1A17" transform="translate(470,292)"/>
<path d="M0 0 C0.99 0.495 0.99 0.495 2 1 C2 1.66 2 2.32 2 3 C3.32 2.34 4.64 1.68 6 1 C4.79157144 5.43090471 3.48331435 7.98112756 0 11 C0 7.33333333 0 3.66666667 0 0 Z " fill="#311A17" transform="translate(58,120)"/>
<path d="M0 0 C2.475 0.495 2.475 0.495 5 1 C1.9182501 3.05449993 -0.3095757 3.74475809 -3.875 4.625 C-4.90367187 4.88539063 -5.93234375 5.14578125 -6.9921875 5.4140625 C-9.75879061 5.95301116 -12.19284196 6.11394368 -15 6 C-14.34 5.01 -13.68 4.02 -13 3 C-10.66709801 2.9551365 -8.33300933 2.96111651 -6 3 C-2.67813829 2.08885464 -2.67813829 2.08885464 0 1 C0 0.67 0 0.34 0 0 Z " fill="#65645B" transform="translate(397,477)"/>
<path d="M0 0 C-0.639375 0.103125 -1.27875 0.20625 -1.9375 0.3125 C-2.618125 0.539375 -3.29875 0.76625 -4 1 C-4.33 1.99 -4.66 2.98 -5 4 C-8.33333333 4.66666667 -11.66666667 5.33333333 -15 6 C-12.74109621 3.48045346 -10.582103 2.12667267 -7.5 0.75 C-6.7265625 0.39421875 -5.953125 0.0384375 -5.15625 -0.328125 C-3 -1 -3 -1 0 0 Z " fill="#3C1915" transform="translate(180,256)"/>
<path d="M0 0 C3.35595828 0.59927826 5.37801226 1.84622436 8 4 C3.545 5.485 3.545 5.485 -1 7 C-0.67 6.01 -0.34 5.02 0 4 C0 2.68 0 1.36 0 0 Z " fill="#2C1C19" transform="translate(146,42)"/>
<path d="M0 0 C1.2380014 3.57644848 0.74926071 6.33694766 0 10 C-0.66 10 -1.32 10 -2 10 C-2.12375 10.804375 -2.2475 11.60875 -2.375 12.4375 C-2.58125 13.283125 -2.7875 14.12875 -3 15 C-3.99 15.495 -3.99 15.495 -5 16 C-4.54548816 14.26982492 -4.08621143 12.54090123 -3.625 10.8125 C-3.36976563 9.84957031 -3.11453125 8.88664062 -2.8515625 7.89453125 C-2.05233704 5.17789793 -1.0968638 2.60862825 0 0 Z " fill="#441B17" transform="translate(465,310)"/>
<path d="M0 0 C0.99 0 1.98 0 3 0 C2.71682074 1.60568666 2.42312209 3.20952047 2.125 4.8125 C1.96257812 5.70582031 1.80015625 6.59914063 1.6328125 7.51953125 C1 10 1 10 -1 13 C-2.51403812 8.15507803 -1.36602172 4.7408989 0 0 Z " fill="#5C5A4E" transform="translate(486,309)"/>
<path d="M0 0 C2 2 2 2 2.3125 4.875 C1.9736202 8.26379801 1.27183419 9.53884629 -1 12 C-1.92470553 7.28400182 -2.22923777 4.32734391 0 0 Z " fill="#291A1C" transform="translate(44,147)"/>
<path d="M0 0 C5.45769811 -0.11138159 10.61509359 0.08342019 16 1 C16 1.33 16 1.66 16 2 C8.08 2.495 8.08 2.495 0 3 C0 2.01 0 1.02 0 0 Z " fill="#361A17" transform="translate(216,469)"/>
<path d="M0 0 C2.2458579 1.04271974 4.10978043 2.08649367 6.0625 3.625 C8.0117832 5.2893735 8.0117832 5.2893735 11 5 C11.33 6.65 11.66 8.3 12 10 C8.78727751 8.56006357 6.3793336 6.76981628 3.75 4.4375 C3.04359375 3.81746094 2.3371875 3.19742187 1.609375 2.55859375 C1.07828125 2.04425781 0.5471875 1.52992188 0 1 C0 0.67 0 0.34 0 0 Z " fill="#A83633" transform="translate(100,414)"/>
<path d="M0 0 C0.99 0 1.98 0 3 0 C3 0.99 3 1.98 3 3 C3.78375 2.484375 4.5675 1.96875 5.375 1.4375 C6.24125 0.963125 7.1075 0.48875 8 0 C8.66 0.33 9.32 0.66 10 1 C6.535 3.97 6.535 3.97 3 7 C2.34 5.68 1.68 4.36 1 3 C0.34 3 -0.32 3 -1 3 C-0.67 2.01 -0.34 1.02 0 0 Z " fill="#AA342E" transform="translate(393,410)"/>
<path d="M0 0 C0.33 0 0.66 0 1 0 C1.36717663 7.4659249 1.36717663 7.4659249 -0.375 10 C-2 11 -2 11 -4 11 C-3.52269162 9.5410574 -3.04308958 8.08286504 -2.5625 6.625 C-2.29566406 5.81289062 -2.02882813 5.00078125 -1.75390625 4.1640625 C-1 2 -1 2 0 0 Z " fill="#3E3E36" transform="translate(23,150)"/>
<path d="M0 0 C1.32 0.33 2.64 0.66 4 1 C4.0825 1.5775 4.165 2.155 4.25 2.75 C5.20531013 5.6159304 6.78469173 6.9990764 9 9 C5.72766181 8.12737648 3.50912029 7.52609096 1.125 5.0625 C0 3 0 3 0 0 Z " fill="#B5312F" transform="translate(132,434)"/>
<path d="M0 0 C0.66 0.66 1.32 1.32 2 2 C1.79982402 5.13609042 1.63401962 7.25571609 -0.4375 9.6875 C-0.953125 10.120625 -1.46875 10.55375 -2 11 C-2.66 11.99 -3.32 12.98 -4 14 C-3.46148032 8.72250715 -2.22656164 4.74354436 0 0 Z " fill="#636157" transform="translate(18,162)"/>
<path d="M0 0 C0.33 0.66 0.66 1.32 1 2 C1.66 2.33 2.32 2.66 3 3 C0.78071806 5.90802461 -0.92969143 7.95312762 -4 10 C-4 8.68 -4 7.36 -4 6 C-3.34 6 -2.68 6 -2 6 C-1.34 4.02 -0.68 2.04 0 0 Z " fill="#191814" transform="translate(35,128)"/>
<path d="M0 0 C-9.41002278 4.59225513 -9.41002278 4.59225513 -14 4 C-14 3.34 -14 2.68 -14 2 C-12.42085985 1.46658816 -10.83645613 0.94874237 -9.25 0.4375 C-8.36828125 0.14746094 -7.4865625 -0.14257812 -6.578125 -0.44140625 C-3.92165684 -1.01697435 -2.52968894 -0.89248371 0 0 Z " fill="#401A17" transform="translate(328,459)"/>
<path d="M0 0 C2.64 0.33 5.28 0.66 8 1 C8 1.66 8 2.32 8 3 C9.98 3.66 11.96 4.32 14 5 C13.01 5.495 13.01 5.495 12 6 C9.92803369 5.26821134 7.8891448 4.44100997 5.875 3.5625 C4.77929688 3.08941406 3.68359375 2.61632812 2.5546875 2.12890625 C1.71164063 1.75636719 0.86859375 1.38382812 0 1 C0 0.67 0 0.34 0 0 Z " fill="#9C322E" transform="translate(154,450)"/>
<path d="M0 0 C0 3.77910478 -0.99703962 4.46106101 -3.5 7.1875 C-4.47453125 8.26064453 -4.47453125 8.26064453 -5.46875 9.35546875 C-5.9740625 9.89816406 -6.479375 10.44085938 -7 11 C-7 8 -7 8 -6 5 C-6 4.01 -6 3.02 -6 2 C-4.68 2 -3.36 2 -2 2 C-1.34 1.34 -0.68 0.68 0 0 Z " fill="#9A988D" transform="translate(440,403)"/>
<path d="M0 0 C5.80205656 5.64524422 5.80205656 5.64524422 8 9 C8 9.66 8 10.32 8 11 C7.34 11 6.68 11 6 11 C5.34 9.35 4.68 7.7 4 6 C3.01 6 2.02 6 1 6 C0.67 4.02 0.34 2.04 0 0 Z " fill="#B33632" transform="translate(428,113)"/>
<path d="M0 0 C-1.45449401 1.0055761 -2.91372443 2.00430435 -4.375 3 C-5.59316406 3.8353125 -5.59316406 3.8353125 -6.8359375 4.6875 C-9 6 -9 6 -11 6 C-11 5.34 -11 4.68 -11 4 C-10.01 4 -9.02 4 -8 4 C-7.67 2.68 -7.34 1.36 -7 0 C-3.98968256 -0.93423645 -3.13349732 -1.04449911 0 0 Z " fill="#AB3434" transform="translate(376,433)"/>
<path d="M0 0 C0 1.65 0 3.3 0 5 C-1.65 5 -3.3 5 -5 5 C-5.33 5.99 -5.66 6.98 -6 8 C-6.66 7.67 -7.32 7.34 -8 7 C-2.34042553 0 -2.34042553 0 0 0 Z " fill="#D34036" transform="translate(95,87)"/>
<path d="M0 0 C0.66 0.33 1.32 0.66 2 1 C0.74922363 3.50155273 -0.35027305 3.92212548 -2.8125 5.1875 C-3.49957031 5.55230469 -4.18664062 5.91710938 -4.89453125 6.29296875 C-7.35996549 7.12087895 -8.58292094 6.85276722 -11 6 C-9.21385682 4.96953278 -7.42089982 3.95086764 -5.625 2.9375 C-4.62726563 2.36902344 -3.62953125 1.80054688 -2.6015625 1.21484375 C-1.74304688 0.81394531 -0.88453125 0.41304687 0 0 Z " fill="#C0403B" transform="translate(155,44)"/>
<path d="M0 0 C0.66 0.33 1.32 0.66 2 1 C-0.475 4.465 -0.475 4.465 -3 8 C-4.32 7.67 -5.64 7.34 -7 7 C-4.69 4.69 -2.38 2.38 0 0 Z " fill="#444139" transform="translate(52,431)"/>
<path d="M0 0 C1.32 0 2.64 0 4 0 C2.8141763 3.37503669 1.72426311 5.64722731 -1 8 C-1.33 7.34 -1.66 6.68 -2 6 C-2.99 5.67 -3.98 5.34 -5 5 C-4 4 -4 4 -1.4375 3.9375 C-0.2309375 3.9684375 -0.2309375 3.9684375 1 4 C0.67 2.68 0.34 1.36 0 0 Z " fill="#5F5C52" transform="translate(457,375)"/>
<path d="M0 0 C1.32 0.33 2.64 0.66 4 1 C4.33 3.97 4.66 6.94 5 10 C2.35534962 6.8745041 1.15585285 3.91211733 0 0 Z " fill="#AE3531" transform="translate(42,332)"/>
<path d="M0 0 C0.66 0 1.32 0 2 0 C2 0.66 2 1.32 2 2 C2.66 2 3.32 2 4 2 C4.66 3.32 5.32 4.64 6 6 C5.01 7.32 4.02 8.64 3 10 C2.01 6.7 1.02 3.4 0 0 Z " fill="#B3322A" transform="translate(38,321)"/>
<path d="M0 0 C2.31 0 4.62 0 7 0 C3.87567603 2.52349243 0.61939504 4.27256146 -3 6 C-2.625 4.0625 -2.625 4.0625 -2 2 C-1.34 1.67 -0.68 1.34 0 1 C0 0.67 0 0.34 0 0 Z " fill="#D94238" transform="translate(165,257)"/>
<path d="M0 0 C2.64 0.33 5.28 0.66 8 1 C7.01 2.32 6.02 3.64 5 5 C3.0625 4.1875 3.0625 4.1875 1 3 C0.67 2.01 0.34 1.02 0 0 Z " fill="#341E1D" transform="translate(89,83)"/>
<path d="M0 0 C0 0.66 0 1.32 0 2 C-4.53701494 3.45184478 -8.18061476 4.23509196 -13 4 C-8.68630028 1.12420019 -5.19265239 0 0 0 Z " fill="#C74038" transform="translate(182,35)"/>
<path d="M0 0 C3.80984844 2.77079887 4.06840752 6.62868145 5 11 C1.51668565 7.98112756 0.20842856 5.43090471 -1 1 C-0.67 0.67 -0.34 0.34 0 0 Z " fill="#777368" transform="translate(36,368)"/>
<path d="M0 0 C0.33 0.66 0.66 1.32 1 2 C0.22265625 3.9453125 0.22265625 3.9453125 -0.9375 6.125 C-1.31777344 6.84945313 -1.69804687 7.57390625 -2.08984375 8.3203125 C-2.39019531 8.87460937 -2.69054687 9.42890625 -3 10 C-4.078125 8.16796875 -4.078125 8.16796875 -5 6 C-3.67172689 3.14421282 -2.85356058 1.42678029 0 0 Z " fill="#767268" transform="translate(473,351)"/>
<path d="M0 0 C1.12377697 3.30435084 0.89554742 5.0506862 -0.4375 8.25 C-0.72496094 8.95640625 -1.01242187 9.6628125 -1.30859375 10.390625 C-1.53675781 10.92171875 -1.76492188 11.4528125 -2 12 C-2.66 12 -3.32 12 -4 12 C-3.33501617 7.61110675 -1.81242323 4.0188515 0 0 Z " fill="#391919" transform="translate(457,332)"/>
<path d="M0 0 C0.6875 1.6875 0.6875 1.6875 1 4 C0.04504326 5.69287785 -0.9590934 7.35857037 -2 9 C-2.70670728 11.69254991 -2.70670728 11.69254991 -3 14 C-3.33 14 -3.66 14 -4 14 C-3.66009167 8.62007164 -3.31442207 4.46726453 0 0 Z " fill="#551F18" transform="translate(156,269)"/>
<path d="M0 0 C2.22825644 2.22825644 2.69239369 3.65761628 3.625 6.625 C3.88539063 7.44226563 4.14578125 8.25953125 4.4140625 9.1015625 C4.60742188 9.72804687 4.80078125 10.35453125 5 11 C4.01 11 3.02 11 2 11 C1.47007308 9.54494642 0.9513211 8.08581873 0.4375 6.625 C0.14746094 5.81289062 -0.14257812 5.00078125 -0.44140625 4.1640625 C-1 2 -1 2 0 0 Z " fill="#525049" transform="translate(475,147)"/>
<path d="M0 0 C0.66 0.33 1.32 0.66 2 1 C0.02 3.31 -1.96 5.62 -4 8 C-4.66 6.68 -5.32 5.36 -6 4 C-4.03617993 2.49440461 -2.21736634 1.10868317 0 0 Z " fill="#36191A" transform="translate(80,99)"/>
<path d="M0 0 C4.21878192 -0.19622241 7.17010894 0.19769832 11 2 C8.35261084 3.4606285 7.10551666 4 4 4 C1.8125 2 1.8125 2 0 0 Z " fill="#DD4337" transform="translate(325,38)"/>
<path d="M0 0 C4.97093824 0.41153737 9.44508386 0.79600832 14 3 C13.67 3.66 13.34 4.32 13 5 C11.39402675 4.54803755 9.79027492 4.08817673 8.1875 3.625 C6.84751953 3.24214844 6.84751953 3.24214844 5.48046875 2.8515625 C3 2 3 2 0 0 Z " fill="#4A1B16" transform="translate(325,36)"/>
<path d="M0 0 C-3.0469629 1.69433918 -5.82821466 2.49467112 -9.25 3.125 C-10.58804688 3.37636719 -10.58804688 3.37636719 -11.953125 3.6328125 C-12.62859375 3.75398438 -13.3040625 3.87515625 -14 4 C-13 2 -13 2 -10.375 0.875 C-6.78189212 -0.05654649 -3.69584376 -0.14783375 0 0 Z " fill="#421815" transform="translate(192,31)"/>
<path d="M0 0 C4.35522853 0.50642192 7.44239635 1.38411497 11 4 C11 4.66 11 5.32 11 6 C6.49197399 4.74194623 3.5087188 3.09592835 0 0 Z " fill="#A83736" transform="translate(141,443)"/>
<path d="M0 0 C3.53600465 1.91135386 5.78972846 3.62642766 8 7 C7.67 7.66 7.34 8.32 7 9 C5.0625 8.25 5.0625 8.25 3 7 C2.375 4.9375 2.375 4.9375 2 3 C1.34 2.67 0.68 2.34 0 2 C0 1.34 0 0.68 0 0 Z " fill="#461A15" transform="translate(329,263)"/>
<path d="M0 0 C0.66 1.98 1.32 3.96 2 6 C-1.37503669 4.8141763 -3.64722731 3.72426311 -6 1 C-3.92446352 0.4465236 -2.15634036 0 0 0 Z " fill="#C83E32" transform="translate(330,258)"/>
<path d="M0 0 C0.33 0 0.66 0 1 0 C1 3.3 1 6.6 1 10 C-0.32 10 -1.64 10 -3 10 C-2.67 8.68 -2.34 7.36 -2 6 C-1.34 6 -0.68 6 0 6 C0 4.02 0 2.04 0 0 Z " fill="#2D1B1A" transform="translate(27,206)"/>
<path d="M0 0 C2.49505962 2.49505962 2.35948376 3.67328888 2.625 7.125 C2.69976562 8.03507813 2.77453125 8.94515625 2.8515625 9.8828125 C2.92503906 10.93082031 2.92503906 10.93082031 3 12 C0.9375 10.5 0.9375 10.5 -1 8 C-1.05928384 5.17593353 -0.55954815 2.79774073 0 0 Z " fill="#A93631" transform="translate(469,204)"/>
<path d="M0 0 C0.66 0 1.32 0 2 0 C1.6189482 2.76262553 1.16402868 3.84143894 -0.875 5.8125 C-1.57625 6.204375 -2.2775 6.59625 -3 7 C-3.99 6.67 -4.98 6.34 -6 6 C-4.68 5.67 -3.36 5.34 -2 5 C-1.855625 4.360625 -1.71125 3.72125 -1.5625 3.0625 C-1 1 -1 1 0 0 Z " fill="#301A12" transform="translate(185,206)"/>
<path d="M0 0 C0.66 0.33 1.32 0.66 2 1 C-1.16952847 4.26008643 -4.39937989 7.22237877 -8 10 C-6.34908222 5.70761377 -3.26245434 3.1206085 0 0 Z " fill="#DC332B" transform="translate(130,106)"/>
<path d="M0 0 C1.32 0 2.64 0 4 0 C4.66 2.31 5.32 4.62 6 7 C1.2 4.53846154 1.2 4.53846154 0.1875 1.8125 C0.125625 1.214375 0.06375 0.61625 0 0 Z " fill="#2F1A1A" transform="translate(374,58)"/>
<path d="M0 0 C3.3 0 6.6 0 10 0 C10 0.66 10 1.32 10 2 C10.66 2.33 11.32 2.66 12 3 C10.56163249 2.88541307 9.12429034 2.75790884 7.6875 2.625 C6.88699219 2.55539062 6.08648437 2.48578125 5.26171875 2.4140625 C3 2 3 2 0 0 Z " fill="#5D5B52" transform="translate(105,480)"/>
<path d="M0 0 C0.99 0 1.98 0 3 0 C3 1.32 3 2.64 3 4 C3.99 4.33 4.98 4.66 6 5 C5.67 6.32 5.34 7.64 5 9 C4.16094435 7.87926138 3.32892169 6.75325453 2.5 5.625 C2.0359375 4.99851562 1.571875 4.37203125 1.09375 3.7265625 C0 2 0 2 0 0 Z " fill="#6F6C65" transform="translate(41,379)"/>
<path d="M0 0 C0.99 0 1.98 0 3 0 C1.8141763 3.37503669 0.72426311 5.64722731 -2 8 C-2.125 5.125 -2.125 5.125 -2 2 C-1.34 1.34 -0.68 0.68 0 0 Z " fill="#AD372D" transform="translate(438,363)"/>
<path d="M0 0 C1.485 0.99 1.485 0.99 3 2 C3.1875 5.125 3.1875 5.125 3 8 C2.01 8 1.02 8 0 8 C0 5.36 0 2.72 0 0 Z " fill="#1A1B16" transform="translate(7,282)"/>
<path d="M0 0 C1.65 1.65 3.3 3.3 5 5 C4.67 5.66 4.34 6.32 4 7 C3.34 7 2.68 7 2 7 C0.3125 5.1875 0.3125 5.1875 -1 3 C-0.67 2.01 -0.34 1.02 0 0 Z " fill="#78756C" transform="translate(442,93)"/>
<path d="M0 0 C-1.39332574 3.36720387 -2.9789286 4.9859524 -6 7 C-6.66 6.67 -7.32 6.34 -8 6 C-3.375 0 -3.375 0 0 0 Z " fill="#1C1A14" transform="translate(67,86)"/>
<path d="M0 0 C2.5 1.375 2.5 1.375 5 3 C5 3.66 5 4.32 5 5 C3.68 5.33 2.36 5.66 1 6 C0.34 5.01 -0.32 4.02 -1 3 C-0.67 2.01 -0.34 1.02 0 0 Z " fill="#E23F38" transform="translate(387,71)"/>
<path d="M0 0 C-2.35277269 2.72426311 -4.62496331 3.8141763 -8 5 C-7.625 3.0625 -7.625 3.0625 -7 1 C-4.53721199 -0.231394 -2.7204945 -0.07159196 0 0 Z " fill="#321715" transform="translate(145,49)"/>
<path d="M0 0 C3.8063457 0.67170806 7.35206816 1.72746564 11 3 C11 3.33 11 3.66 11 4 C8.36 4 5.72 4 3 4 C2.67 3.01 2.34 2.02 2 1 C1.34 0.67 0.68 0.34 0 0 Z " fill="#481D1D" transform="translate(173,458)"/>
<path d="M0 0 C1.32 0 2.64 0 4 0 C4.33 0.99 4.66 1.98 5 3 C5.99 4.485 5.99 4.485 7 6 C6.67 6.66 6.34 7.32 6 8 C4.9970458 6.85675161 3.99770973 5.71032809 3 4.5625 C2.443125 3.92441406 1.88625 3.28632813 1.3125 2.62890625 C0 1 0 1 0 0 Z " fill="#B33433" transform="translate(78,391)"/>
<path d="M0 0 C0.66 0 1.32 0 2 0 C0.74194623 4.50802601 -0.90407165 7.4912812 -4 11 C-3.49357808 6.64477147 -2.61588503 3.55760365 0 0 Z " fill="#A13832" transform="translate(449,346)"/>
<path d="M0 0 C1.98 0 3.96 0 6 0 C6.33 1.32 6.66 2.64 7 4 C4.69 3.34 2.38 2.68 0 2 C0 1.34 0 0.68 0 0 Z " fill="#D73C3B" transform="translate(229,255)"/>
<path d="M0 0 C0.99 0.33 1.98 0.66 3 1 C1.35 2.98 -0.3 4.96 -2 7 C-2.66 5.68 -3.32 4.36 -4 3 C-2.68 3 -1.36 3 0 3 C0 2.01 0 1.02 0 0 Z " fill="#E74039" transform="translate(107,97)"/>
<path d="M0 0 C2.64 0.33 5.28 0.66 8 1 C7.67 2.32 7.34 3.64 7 5 C6.01 4.67 5.02 4.34 4 4 C4 3.34 4 2.68 4 2 C2.68 1.34 1.36 0.68 0 0 Z " fill="#391E19" transform="translate(380,65)"/>
<path d="M0 0 C0.6875 1.8125 0.6875 1.8125 1 4 C-0.4375 5.75 -0.4375 5.75 -2 7 C-2.99 6.34 -3.98 5.68 -5 5 C-3.35 3.35 -1.7 1.7 0 0 Z " fill="#361C18" transform="translate(405,408)"/>
<path d="M0 0 C1.65 0.33 3.3 0.66 5 1 C3.35 2.65 1.7 4.3 0 6 C-1 3 -1 3 0 0 Z " fill="#2D1C17" transform="translate(175,278)"/>
<path d="M0 0 C4.8 3.32307692 4.8 3.32307692 5.8125 6.75 C5.874375 7.4925 5.93625 8.235 6 9 C1.2 5.67692308 1.2 5.67692308 0.1875 2.25 C0.125625 1.5075 0.06375 0.765 0 0 Z " fill="#341610" transform="translate(298,200)"/>
<path d="M0 0 C0.66 0 1.32 0 2 0 C1.74438677 2.3431213 1.40729228 4.67843403 1 7 C0.01 7.495 0.01 7.495 -1 8 C-1.125 2.25 -1.125 2.25 0 0 Z " fill="#CF3D35" transform="translate(43,159)"/>
<path d="M0 0 C0 0.66 0 1.32 0 2 C-3.96 3.98 -3.96 3.98 -8 6 C-8 5.01 -8 4.02 -8 3 C-2.25 0 -2.25 0 0 0 Z " fill="#E03831" transform="translate(176,78)"/>
<path d="M0 0 C0.99 0.33 1.98 0.66 3 1 C0.69 2.65 -1.62 4.3 -4 6 C-4.33 5.01 -4.66 4.02 -5 3 C-3.35 2.67 -1.7 2.34 0 2 C0 1.34 0 0.68 0 0 Z " fill="#3B170F" transform="translate(125,59)"/>
<path d="M0 0 C-0.99 0.495 -0.99 0.495 -2 1 C-2.33 1.99 -2.66 2.98 -3 4 C-6 3 -6 3 -8 0 C-4.94736336 -0.98120464 -3.05263664 -0.98120464 0 0 Z " fill="#FA887A" transform="translate(198,51)"/>
<path d="M0 0 C0.66 0 1.32 0 2 0 C2 0.66 2 1.32 2 2 C2.66 2 3.32 2 4 2 C4 2.66 4 3.32 4 4 C4.66 4.33 5.32 4.66 6 5 C6 5.66 6 6.32 6 7 C3.00675737 5.9024777 2.15389099 5.32317108 0.75 2.375 C0.5025 1.59125 0.255 0.8075 0 0 Z " fill="#4D4741" transform="translate(45,452)"/>
<path d="M0 0 C0.66 0 1.32 0 2 0 C0.9024777 2.99324263 0.32317108 3.84610901 -2.625 5.25 C-3.40875 5.4975 -4.1925 5.745 -5 6 C-5 5.01 -5 4.02 -5 3 C-3.35 2.67 -1.7 2.34 0 2 C0 1.34 0 0.68 0 0 Z " fill="#A93334" transform="translate(381,426)"/>
<path d="M0 0 C0.33 0.99 0.66 1.98 1 3 C0.01 3.33 -0.98 3.66 -2 4 C-2.33 5.65 -2.66 7.3 -3 9 C-4 7 -4 7 -3.1875 3.9375 C-2 1 -2 1 0 0 Z " fill="#151513" transform="translate(468,358)"/>
<path d="M0 0 C0.99 0 1.98 0 3 0 C3.33 2.64 3.66 5.28 4 8 C1.84622436 5.37801226 0.59927826 3.35595828 0 0 Z " fill="#6F6C60" transform="translate(26,352)"/>
<path d="M0 0 C0.66 0 1.32 0 2 0 C1.1875 3.4375 1.1875 3.4375 0 7 C-0.99 7.33 -1.98 7.66 -3 8 C-1.125 2.25 -1.125 2.25 0 0 Z " fill="#DF3A31" transform="translate(77,189)"/>
<path d="M0 0 C4.42857143 5.14285714 4.42857143 5.14285714 5 9 C4.01 9 3.02 9 2 9 C1.34 6.03 0.68 3.06 0 0 Z " fill="#A5382F" transform="translate(449,146)"/>
<path d="M0 0 C1.31471568 0.28151087 2.62675767 0.57553339 3.9375 0.875 C4.66839844 1.03742187 5.39929688 1.19984375 6.15234375 1.3671875 C8 2 8 2 9 4 C5.87709365 3.51421457 3.00419641 3.0013988 0 2 C0 1.34 0 0.68 0 0 Z " fill="#C24334" transform="translate(336,41)"/>
<path d="M0 0 C0 0.33 0 0.66 0 1 C-4.17737474 2.59138085 -7.53160785 3.21278058 -12 3 C-7.58119757 0.05413171 -5.32232661 -0.0985616 0 0 Z " fill="#DD453D" transform="translate(195,32)"/>
<path d="" fill="#FFFFFF" transform="translate(0,0)"/>
<path d="" fill="#FFFFFF" transform="translate(0,0)"/>
<path d="" fill="#FFFFFF" transform="translate(0,0)"/>
<path d="" fill="#FFFFFF" transform="translate(0,0)"/>
<path d="" fill="#FFFFFF" transform="translate(0,0)"/>
<path d="" fill="#FFFFFF" transform="translate(0,0)"/>
<path d="" fill="#FFFFFF" transform="translate(0,0)"/>
<path d="" fill="#FFFFFF" transform="translate(0,0)"/>
<path d="" fill="#FFFFFF" transform="translate(0,0)"/>
<path d="" fill="#FFFFFF" transform="translate(0,0)"/>
<path d="" fill="#FFFFFF" transform="translate(0,0)"/>
<path d="" fill="#FFFFFF" transform="translate(0,0)"/>
<path d="" fill="#FFFFFF" transform="translate(0,0)"/>
<path d="" fill="#FFFFFF" transform="translate(0,0)"/>
<path d="" fill="#FFFFFF" transform="translate(0,0)"/>
</svg>
